  0
SECTION
  2
HEADER
  9
$ACADVER
  1
AC1009
  9
$INSBASE
 10
0.0
 20
0.0
 30
0.0
  9
$EXTMIN
 10
0.0
 20
0.0
 30
0.0
  9
$EXTMAX
 10
0.0
 20
0.0
 30
0.0
  0
ENDSEC
  0
SECTION
  2
TABLES
  0
TABLE
  2
VPORT
 70
0
  0
ENDTAB
  0
TABLE
  2
LTYPE
 70
1
  0
LTYPE
  2
CONTINUOUS
 70
0
  3
Solid line
 72
65
 73
0
 40
0.0
  0
ENDTAB
  0
TABLE
  2
LAYER
 70
1
  0
LAYER
  2
PYDXF
 70
64
 62
7
  6
continuous
  0
ENDTAB
  0
TABLE
  2
STYLE
 70
1
  0
STYLE
  2
STANDARD
 70
0
 40
0
 41
1.0
 50
0.0
 71
0
 42
1
 3
ARIAL.TTF
 4

  0
ENDTAB
  0
TABLE
  2
VIEW
 70
0
  0
ENDTAB
  0
ENDSEC
  0
SECTION
  2
BLOCKS
  0
BLOCK
  8
0
  2
PAD
 70
0
 10
0.0
 20
0.0
 30
0.0
  3
PAD
  0
POLYLINE
  8
0
 62
0
 70
1
 66
1
 10
0.0
 20
0.0
 30
0.0
  0
VERTEX
  8
0
 10
193.361206
 20
56.608376
  0
VERTEX
  8
0
 10
193.361206
 20
56.608376
  0
VERTEX
  8
0
 10
220.361206
 20
56.608376
  0
VERTEX
  8
0
 10
220.361206
 20
56.608376
  0
SEQEND
  8
0
  0
POLYLINE
  8
0
 62
0
 70
1
 66
1
 10
0.0
 20
0.0
 30
0.0
  0
VERTEX
  8
0
 10
220.361206
 20
56.608376
  0
VERTEX
  8
0
 10
220.361206
 20
56.608376
  0
VERTEX
  8
0
 10
220.361206
 20
46.608376
  0
VERTEX
  8
0
 10
220.361206
 20
46.608376
  0
SEQEND
  8
0
  0
POLYLINE
  8
0
 62
0
 70
1
 66
1
 10
0.0
 20
0.0
 30
0.0
  0
VERTEX
  8
0
 10
220.361206
 20
46.608376
  0
VERTEX
  8
0
 10
220.361206
 20
46.608376
  0
VERTEX
  8
0
 10
193.361206
 20
46.608376
  0
VERTEX
  8
0
 10
193.361206
 20
46.608376
  0
SEQEND
  8
0
  0
POLYLINE
  8
0
 62
0
 70
1
 66
1
 10
0.0
 20
0.0
 30
0.0
  0
VERTEX
  8
0
 10
193.361206
 20
46.608376
  0
VERTEX
  8
0
 10
193.361206
 20
46.608376
  0
VERTEX
  8
0
 10
193.361206
 20
56.608376
  0
VERTEX
  8
0
 10
193.361206
 20
56.608376
  0
SEQEND
  8
0
  0
POLYLINE
  8
0
 62
0
 70
1
 66
1
 10
0.0
 20
0.0
 30
0.0
  0
VERTEX
  8
0
 10
193.361206
 20
56.608376
  0
VERTEX
  8
0
 10
220.361206
 20
56.608376
  0
VERTEX
  8
0
 10
220.361206
 20
46.608376
  0
VERTEX
  8
0
 10
193.361206
 20
46.608376
  0
SEQEND
  8
0
  0
POLYLINE
  8
0
 62
0
 70
1
 66
1
 10
0.0
 20
0.0
 30
0.0
  0
VERTEX
  8
0
 10
193.361206
 20
56.608376
  0
VERTEX
  8
0
 10
220.361206
 20
56.608376
  0
VERTEX
  8
0
 10
220.361206
 20
46.608376
  0
VERTEX
  8
0
 10
193.361206
 20
46.608376
  0
SEQEND
  8
0
  0
POLYLINE
  8
0
 62
0
 70
1
 66
1
 10
0.0
 20
0.0
 30
0.0
  0
VERTEX
  8
0
 10
173.361206
 20
56.608376
  0
VERTEX
  8
0
 10
173.361206
 20
56.608376
  0
VERTEX
  8
0
 10
190.361206
 20
56.608376
  0
VERTEX
  8
0
 10
190.361206
 20
56.608376
  0
SEQEND
  8
0
  0
POLYLINE
  8
0
 62
0
 70
1
 66
1
 10
0.0
 20
0.0
 30
0.0
  0
VERTEX
  8
0
 10
190.361206
 20
56.608376
  0
VERTEX
  8
0
 10
190.361206
 20
56.608376
  0
VERTEX
  8
0
 10
190.361206
 20
46.608376
  0
VERTEX
  8
0
 10
190.361206
 20
46.608376
  0
SEQEND
  8
0
  0
POLYLINE
  8
0
 62
0
 70
1
 66
1
 10
0.0
 20
0.0
 30
0.0
  0
VERTEX
  8
0
 10
190.361206
 20
46.608376
  0
VERTEX
  8
0
 10
190.361206
 20
46.608376
  0
VERTEX
  8
0
 10
173.361206
 20
46.608376
  0
VERTEX
  8
0
 10
173.361206
 20
46.608376
  0
SEQEND
  8
0
  0
POLYLINE
  8
0
 62
0
 70
1
 66
1
 10
0.0
 20
0.0
 30
0.0
  0
VERTEX
  8
0
 10
173.361206
 20
46.608376
  0
VERTEX
  8
0
 10
173.361206
 20
46.608376
  0
VERTEX
  8
0
 10
173.361206
 20
56.608376
  0
VERTEX
  8
0
 10
173.361206
 20
56.608376
  0
SEQEND
  8
0
  0
POLYLINE
  8
0
 62
0
 70
1
 66
1
 10
0.0
 20
0.0
 30
0.0
  0
VERTEX
  8
0
 10
173.361206
 20
56.608376
  0
VERTEX
  8
0
 10
190.361206
 20
56.608376
  0
VERTEX
  8
0
 10
190.361206
 20
46.608376
  0
VERTEX
  8
0
 10
173.361206
 20
46.608376
  0
SEQEND
  8
0
  0
POLYLINE
  8
0
 62
0
 70
1
 66
1
 10
0.0
 20
0.0
 30
0.0
  0
VERTEX
  8
0
 10
173.361206
 20
56.608376
  0
VERTEX
  8
0
 10
190.361206
 20
56.608376
  0
VERTEX
  8
0
 10
190.361206
 20
46.608376
  0
VERTEX
  8
0
 10
173.361206
 20
46.608376
  0
SEQEND
  8
0
  0
POLYLINE
  8
0
 62
0
 70
0
 66
1
 10
0.0
 20
0.0
 30
0.0
  0
VERTEX
  8
0
 10
256.361206
 20
58.608376
  0
VERTEX
  8
0
 10
256.361206
 20
58.608376
  0
VERTEX
  8
0
 10
256.361206
 20
58.608376
  0
SEQEND
  8
0
  0
CIRCLE
  8
0
 62
0
 10
253.361206
 20
58.608376
 30
0.0
 40
3.0
  0
CIRCLE
  8
0
 62
0
 10
253.361206
 20
58.608376
 30
50.0
 40
3.0
  0
POLYLINE
  8
0
 62
0
 70
0
 66
1
 10
0.0
 20
0.0
 30
0.0
  0
VERTEX
  8
0
 10
236.361206
 20
58.608376
  0
VERTEX
  8
0
 10
236.361206
 20
58.608376
  0
VERTEX
  8
0
 10
236.361206
 20
58.608376
  0
SEQEND
  8
0
  0
CIRCLE
  8
0
 62
0
 10
233.361206
 20
58.608376
 30
0.0
 40
3.0
  0
CIRCLE
  8
0
 62
0
 10
233.361206
 20
58.608376
 30
50.0
 40
3.0
  0
POLYLINE
  8
0
 62
0
 70
0
 66
1
 10
0.0
 20
0.0
 30
0.0
  0
VERTEX
  8
0
 10
276.861206
 20
60.608376
  0
VERTEX
  8
0
 10
276.861206
 20
60.608376
  0
VERTEX
  8
0
 10
276.861206
 20
60.608376
  0
SEQEND
  8
0
  0
CIRCLE
  8
0
 62
0
 10
274.361206
 20
60.608376
 30
0.0
 40
2.5
  0
CIRCLE
  8
0
 62
0
 10
274.361206
 20
60.608376
 30
50.0
 40
2.5
  0
POLYLINE
  8
0
 62
0
 70
0
 66
1
 10
0.0
 20
0.0
 30
0.0
  0
VERTEX
  8
0
 10
276.861206
 20
48.608376
  0
VERTEX
  8
0
 10
276.861206
 20
48.608376
  0
VERTEX
  8
0
 10
276.861206
 20
48.608376
  0
SEQEND
  8
0
  0
CIRCLE
  8
0
 62
0
 10
274.361206
 20
48.608376
 30
0.0
 40
2.5
  0
CIRCLE
  8
0
 62
0
 10
274.361206
 20
48.608376
 30
50.0
 40
2.5
  0
POLYLINE
  8
0
 62
0
 70
0
 66
1
 10
0.0
 20
0.0
 30
0.0
  0
VERTEX
  8
0
 10
275.961206
 20
74.608376
  0
VERTEX
  8
0
 10
275.961206
 20
74.608376
  0
VERTEX
  8
0
 10
275.961206
 20
74.608376
  0
SEQEND
  8
0
  0
CIRCLE
  8
0
 62
0
 10
274.361206
 20
74.608376
 30
0.0
 40
1.6
  0
CIRCLE
  8
0
 62
0
 10
274.361206
 20
74.608376
 30
50.0
 40
1.6
  0
POLYLINE
  8
0
 62
0
 70
0
 66
1
 10
0.0
 20
0.0
 30
0.0
  0
VERTEX
  8
0
 10
294.861206
 20
44.608376
  0
VERTEX
  8
0
 10
294.861206
 20
44.608376
  0
VERTEX
  8
0
 10
294.861206
 20
44.608376
  0
SEQEND
  8
0
  0
CIRCLE
  8
0
 62
0
 10
293.361206
 20
44.608376
 30
0.0
 40
1.5
  0
CIRCLE
  8
0
 62
0
 10
293.361206
 20
44.608376
 30
50.0
 40
1.5
  0
POLYLINE
  8
0
 62
0
 70
0
 66
1
 10
0.0
 20
0.0
 30
0.0
  0
VERTEX
  8
0
 10
171.361206
 20
44.608376
  0
VERTEX
  8
0
 10
171.361206
 20
44.608376
  0
VERTEX
  8
0
 10
171.361206
 20
44.608376
  0
SEQEND
  8
0
  0
CIRCLE
  8
0
 62
0
 10
169.861206
 20
44.608376
 30
0.0
 40
1.5
  0
CIRCLE
  8
0
 62
0
 10
169.861206
 20
44.608376
 30
50.0
 40
1.5
  0
POLYLINE
  8
0
 62
0
 70
0
 66
1
 10
0.0
 20
0.0
 30
0.0
  0
VERTEX
  8
0
 10
294.861206
 20
79.608376
  0
VERTEX
  8
0
 10
294.861206
 20
79.608376
  0
VERTEX
  8
0
 10
294.861206
 20
79.608376
  0
SEQEND
  8
0
  0
CIRCLE
  8
0
 62
0
 10
293.361206
 20
79.608376
 30
0.0
 40
1.5
  0
CIRCLE
  8
0
 62
0
 10
293.361206
 20
79.608376
 30
50.0
 40
1.5
  0
POLYLINE
  8
0
 62
0
 70
0
 66
1
 10
0.0
 20
0.0
 30
0.0
  0
VERTEX
  8
0
 10
171.361206
 20
79.608376
  0
VERTEX
  8
0
 10
171.361206
 20
79.608376
  0
VERTEX
  8
0
 10
171.361206
 20
79.608376
  0
SEQEND
  8
0
  0
CIRCLE
  8
0
 62
0
 10
169.861206
 20
79.608376
 30
0.0
 40
1.5
  0
CIRCLE
  8
0
 62
0
 10
169.861206
 20
79.608376
 30
50.0
 40
1.5
  0
ENDBLK
  0
BLOCK
  8
0
  2
PAD011
 70
0
 10
0.0
 20
0.0
 30
0.0
  3
PAD011
  0
POLYLINE
  8
0
 62
0
 70
1
 66
1
 10
0.0
 20
0.0
 30
0.0
  0
VERTEX
  8
0
 10
583.885417382
 20
25.961432
  0
VERTEX
  8
0
 10
583.885417382
 20
25.961432
  0
VERTEX
  8
0
 10
717.235417382
 20
25.961432
  0
VERTEX
  8
0
 10
717.235417382
 20
25.961432
  0
SEQEND
  8
0
  0
POLYLINE
  8
0
 62
0
 70
1
 66
1
 10
0.0
 20
0.0
 30
0.0
  0
VERTEX
  8
0
 10
727.235417382
 20
15.9614287321
  0
VERTEX
  8
0
 10
727.235417382
 20
15.9614287321
  0
VERTEX
  8
0
 10
717.235417382
 20
25.961432
  0
VERTEX
  8
0
 10
717.235417382
 20
25.961432
  0
SEQEND
  8
0
  0
POLYLINE
  8
0
 62
0
 70
1
 66
1
 10
0.0
 20
0.0
 30
0.0
  0
VERTEX
  8
0
 10
727.235417382
 20
-446.638564732
  0
VERTEX
  8
0
 10
727.235417382
 20
-446.638564732
  0
VERTEX
  8
0
 10
727.235417382
 20
15.9614287321
  0
VERTEX
  8
0
 10
727.235417382
 20
15.9614287321
  0
SEQEND
  8
0
  0
POLYLINE
  8
0
 62
0
 70
1
 66
1
 10
0.0
 20
0.0
 30
0.0
  0
VERTEX
  8
0
 10
717.235417382
 20
-456.638568
  0
VERTEX
  8
0
 10
717.235417382
 20
-456.638568
  0
VERTEX
  8
0
 10
727.235417382
 20
-446.638564732
  0
VERTEX
  8
0
 10
727.235417382
 20
-446.638564732
  0
SEQEND
  8
0
  0
POLYLINE
  8
0
 62
0
 70
1
 66
1
 10
0.0
 20
0.0
 30
0.0
  0
VERTEX
  8
0
 10
717.235417382
 20
-456.638568
  0
VERTEX
  8
0
 10
717.235417382
 20
-456.638568
  0
VERTEX
  8
0
 10
583.885417382
 20
-456.638568
  0
VERTEX
  8
0
 10
583.885417382
 20
-456.638568
  0
SEQEND
  8
0
  0
POLYLINE
  8
0
 62
0
 70
1
 66
1
 10
0.0
 20
0.0
 30
0.0
  0
VERTEX
  8
0
 10
583.885417382
 20
-456.638568
  0
VERTEX
  8
0
 10
583.885417382
 20
-456.638568
  0
VERTEX
  8
0
 10
583.885417382
 20
-589.988568
  0
VERTEX
  8
0
 10
583.885417382
 20
-589.988568
  0
SEQEND
  8
0
  0
POLYLINE
  8
0
 62
0
 70
1
 66
1
 10
0.0
 20
0.0
 30
0.0
  0
VERTEX
  8
0
 10
583.885417382
 20
-589.988568
  0
VERTEX
  8
0
 10
583.885417382
 20
-589.988568
  0
VERTEX
  8
0
 10
573.885414114
 20
-599.988568
  0
VERTEX
  8
0
 10
573.885414114
 20
-599.988568
  0
SEQEND
  8
0
  0
POLYLINE
  8
0
 62
0
 70
1
 66
1
 10
0.0
 20
0.0
 30
0.0
  0
VERTEX
  8
0
 10
573.885414114
 20
-599.988568
  0
VERTEX
  8
0
 10
573.885414114
 20
-599.988568
  0
VERTEX
  8
0
 10
158.88542065
 20
-599.988568
  0
VERTEX
  8
0
 10
158.88542065
 20
-599.988568
  0
SEQEND
  8
0
  0
POLYLINE
  8
0
 62
0
 70
1
 66
1
 10
0.0
 20
0.0
 30
0.0
  0
VERTEX
  8
0
 10
158.88542065
 20
-599.988568
  0
VERTEX
  8
0
 10
158.88542065
 20
-599.988568
  0
VERTEX
  8
0
 10
148.885417382
 20
-589.988568
  0
VERTEX
  8
0
 10
148.885417382
 20
-589.988568
  0
SEQEND
  8
0
  0
POLYLINE
  8
0
 62
0
 70
1
 66
1
 10
0.0
 20
0.0
 30
0.0
  0
VERTEX
  8
0
 10
148.885417382
 20
-589.988568
  0
VERTEX
  8
0
 10
148.885417382
 20
-589.988568
  0
VERTEX
  8
0
 10
148.885417382
 20
-456.638568
  0
VERTEX
  8
0
 10
148.885417382
 20
-456.638568
  0
SEQEND
  8
0
  0
POLYLINE
  8
0
 62
0
 70
1
 66
1
 10
0.0
 20
0.0
 30
0.0
  0
VERTEX
  8
0
 10
15.5354173824
 20
-456.638568
  0
VERTEX
  8
0
 10
15.5354173824
 20
-456.638568
  0
VERTEX
  8
0
 10
148.885417382
 20
-456.638568
  0
VERTEX
  8
0
 10
148.885417382
 20
-456.638568
  0
SEQEND
  8
0
  0
POLYLINE
  8
0
 62
0
 70
1
 66
1
 10
0.0
 20
0.0
 30
0.0
  0
VERTEX
  8
0
 10
15.5354173824
 20
-456.638568
  0
VERTEX
  8
0
 10
15.5354173824
 20
-456.638568
  0
VERTEX
  8
0
 10
5.53541738242
 20
-446.638564732
  0
VERTEX
  8
0
 10
5.53541738242
 20
-446.638564732
  0
SEQEND
  8
0
  0
POLYLINE
  8
0
 62
0
 70
1
 66
1
 10
0.0
 20
0.0
 30
0.0
  0
VERTEX
  8
0
 10
5.53541738242
 20
-446.638564732
  0
VERTEX
  8
0
 10
5.53541738242
 20
-446.638564732
  0
VERTEX
  8
0
 10
5.53541738242
 20
15.9614287321
  0
VERTEX
  8
0
 10
5.53541738242
 20
15.9614287321
  0
SEQEND
  8
0
  0
POLYLINE
  8
0
 62
0
 70
1
 66
1
 10
0.0
 20
0.0
 30
0.0
  0
VERTEX
  8
0
 10
5.53541738242
 20
15.9614287321
  0
VERTEX
  8
0
 10
5.53541738242
 20
15.9614287321
  0
VERTEX
  8
0
 10
15.5354173824
 20
25.961432
  0
VERTEX
  8
0
 10
15.5354173824
 20
25.961432
  0
SEQEND
  8
0
  0
POLYLINE
  8
0
 62
0
 70
1
 66
1
 10
0.0
 20
0.0
 30
0.0
  0
VERTEX
  8
0
 10
148.885417382
 20
25.961432
  0
VERTEX
  8
0
 10
148.885417382
 20
25.961432
  0
VERTEX
  8
0
 10
15.5354173824
 20
25.961432
  0
VERTEX
  8
0
 10
15.5354173824
 20
25.961432
  0
SEQEND
  8
0
  0
POLYLINE
  8
0
 62
0
 70
0
 66
1
 10
0.0
 20
0.0
 30
0.0
  0
VERTEX
  8
0
 10
583.885417382
 20
25.961432
  0
VERTEX
  8
0
 10
717.235417382
 20
25.961432
  0
VERTEX
  8
0
 10
727.235417382
 20
15.9614287321
  0
VERTEX
  8
0
 10
727.235417382
 20
-446.638564732
  0
VERTEX
  8
0
 10
717.235417382
 20
-456.638568
  0
VERTEX
  8
0
 10
583.885417382
 20
-456.638568
  0
VERTEX
  8
0
 10
583.885417382
 20
-589.988568
  0
VERTEX
  8
0
 10
573.885414114
 20
-599.988568
  0
VERTEX
  8
0
 10
158.88542065
 20
-599.988568
  0
VERTEX
  8
0
 10
148.885417382
 20
-589.988568
  0
VERTEX
  8
0
 10
148.885417382
 20
-456.638568
  0
VERTEX
  8
0
 10
15.5354173824
 20
-456.638568
  0
VERTEX
  8
0
 10
5.53541738242
 20
-446.638564732
  0
VERTEX
  8
0
 10
5.53541738242
 20
15.9614287321
  0
VERTEX
  8
0
 10
15.5354173824
 20
25.961432
  0
VERTEX
  8
0
 10
148.885417382
 20
25.961432
  0
SEQEND
  8
0
  0
POLYLINE
  8
0
 62
0
 70
0
 66
1
 10
0.0
 20
0.0
 30
0.0
  0
VERTEX
  8
0
 10
583.885417382
 20
25.961432
  0
VERTEX
  8
0
 10
717.235417382
 20
25.961432
  0
VERTEX
  8
0
 10
727.235417382
 20
15.9614287321
  0
VERTEX
  8
0
 10
727.235417382
 20
-446.638564732
  0
VERTEX
  8
0
 10
717.235417382
 20
-456.638568
  0
VERTEX
  8
0
 10
583.885417382
 20
-456.638568
  0
VERTEX
  8
0
 10
583.885417382
 20
-589.988568
  0
VERTEX
  8
0
 10
573.885414114
 20
-599.988568
  0
VERTEX
  8
0
 10
158.88542065
 20
-599.988568
  0
VERTEX
  8
0
 10
148.885417382
 20
-589.988568
  0
VERTEX
  8
0
 10
148.885417382
 20
-456.638568
  0
VERTEX
  8
0
 10
15.5354173824
 20
-456.638568
  0
VERTEX
  8
0
 10
5.53541738242
 20
-446.638564732
  0
VERTEX
  8
0
 10
5.53541738242
 20
15.9614287321
  0
VERTEX
  8
0
 10
15.5354173824
 20
25.961432
  0
VERTEX
  8
0
 10
148.885417382
 20
25.961432
  0
SEQEND
  8
0
  0
POLYLINE
  8
0
 62
0
 70
1
 66
1
 10
0.0
 20
0.0
 30
0.0
  0
VERTEX
  8
0
 10
850.936646
 20
24.634405
  0
VERTEX
  8
0
 10
850.936646
 20
24.634405
  0
VERTEX
  8
0
 10
1285.936646
 20
24.634405
  0
VERTEX
  8
0
 10
1285.936646
 20
24.634405
  0
SEQEND
  8
0
  0
POLYLINE
  8
0
 62
0
 70
1
 66
1
 10
0.0
 20
0.0
 30
0.0
  0
VERTEX
  8
0
 10
1285.936646
 20
24.634405
  0
VERTEX
  8
0
 10
1285.936646
 20
24.634405
  0
VERTEX
  8
0
 10
1285.936646
 20
-457.965595
  0
VERTEX
  8
0
 10
1285.936646
 20
-457.965595
  0
SEQEND
  8
0
  0
POLYLINE
  8
0
 62
0
 70
1
 66
1
 10
0.0
 20
0.0
 30
0.0
  0
VERTEX
  8
0
 10
1285.936646
 20
-457.965595
  0
VERTEX
  8
0
 10
1285.936646
 20
-457.965595
  0
VERTEX
  8
0
 10
850.936646
 20
-457.965595
  0
VERTEX
  8
0
 10
850.936646
 20
-457.965595
  0
SEQEND
  8
0
  0
POLYLINE
  8
0
 62
0
 70
1
 66
1
 10
0.0
 20
0.0
 30
0.0
  0
VERTEX
  8
0
 10
850.936646
 20
-457.965595
  0
VERTEX
  8
0
 10
850.936646
 20
-457.965595
  0
VERTEX
  8
0
 10
850.936646
 20
24.634405
  0
VERTEX
  8
0
 10
850.936646
 20
24.634405
  0
SEQEND
  8
0
  0
POLYLINE
  8
0
 62
0
 70
1
 66
1
 10
0.0
 20
0.0
 30
0.0
  0
VERTEX
  8
0
 10
850.936646
 20
24.634405
  0
VERTEX
  8
0
 10
1285.936646
 20
24.634405
  0
VERTEX
  8
0
 10
1285.936646
 20
-457.965595
  0
VERTEX
  8
0
 10
850.936646
 20
-457.965595
  0
SEQEND
  8
0
  0
POLYLINE
  8
0
 62
0
 70
1
 66
1
 10
0.0
 20
0.0
 30
0.0
  0
VERTEX
  8
0
 10
850.936646
 20
24.634405
  0
VERTEX
  8
0
 10
1285.936646
 20
24.634405
  0
VERTEX
  8
0
 10
1285.936646
 20
-457.965595
  0
VERTEX
  8
0
 10
850.936646
 20
-457.965595
  0
SEQEND
  8
0
  0
POLYLINE
  8
0
 62
0
 70
1
 66
1
 10
0.0
 20
0.0
 30
0.0
  0
VERTEX
  8
0
 10
125.385417382
 20
159.311432
  0
VERTEX
  8
0
 10
125.385417382
 20
159.311432
  0
VERTEX
  8
0
 10
125.385417382
 20
25.961432
  0
VERTEX
  8
0
 10
125.385417382
 20
25.961432
  0
SEQEND
  8
0
  0
POLYLINE
  8
0
 62
0
 70
1
 66
1
 10
0.0
 20
0.0
 30
0.0
  0
VERTEX
  8
0
 10
149.185425
 20
159.311432
  0
VERTEX
  8
0
 10
149.185425
 20
159.311432
  0
VERTEX
  8
0
 10
125.385417382
 20
159.311432
  0
VERTEX
  8
0
 10
125.385417382
 20
159.311432
  0
SEQEND
  8
0
  0
POLYLINE
  8
0
 62
0
 70
1
 66
1
 10
0.0
 20
0.0
 30
0.0
  0
VERTEX
  8
0
 10
149.185425
 20
159.311432
  0
VERTEX
  8
0
 10
149.185425
 20
159.311432
  0
VERTEX
  8
0
 10
159.18542065
 20
169.311432
  0
VERTEX
  8
0
 10
159.18542065
 20
169.311432
  0
SEQEND
  8
0
  0
POLYLINE
  8
0
 62
0
 70
1
 66
1
 10
0.0
 20
0.0
 30
0.0
  0
VERTEX
  8
0
 10
159.18542065
 20
169.311432
  0
VERTEX
  8
0
 10
159.18542065
 20
169.311432
  0
VERTEX
  8
0
 10
574.76392922
 20
169.311432
  0
VERTEX
  8
0
 10
574.76392922
 20
169.311432
  0
SEQEND
  8
0
  0
POLYLINE
  8
0
 62
0
 70
1
 66
1
 10
0.0
 20
0.0
 30
0.0
  0
VERTEX
  8
0
 10
574.76392922
 20
169.311432
  0
VERTEX
  8
0
 10
574.76392922
 20
169.311432
  0
VERTEX
  8
0
 10
584.763916
 20
159.311432
  0
VERTEX
  8
0
 10
584.763916
 20
159.311432
  0
SEQEND
  8
0
  0
POLYLINE
  8
0
 62
0
 70
1
 66
1
 10
0.0
 20
0.0
 30
0.0
  0
VERTEX
  8
0
 10
584.763916
 20
159.311432
  0
VERTEX
  8
0
 10
584.763916
 20
159.311432
  0
VERTEX
  8
0
 10
607.985413
 20
159.311432
  0
VERTEX
  8
0
 10
607.985413
 20
159.311432
  0
SEQEND
  8
0
  0
POLYLINE
  8
0
 62
0
 70
1
 66
1
 10
0.0
 20
0.0
 30
0.0
  0
VERTEX
  8
0
 10
607.985413
 20
25.961432
  0
VERTEX
  8
0
 10
607.985413
 20
25.961432
  0
VERTEX
  8
0
 10
607.985413
 20
159.311432
  0
VERTEX
  8
0
 10
607.985413
 20
159.311432
  0
SEQEND
  8
0
  0
POLYLINE
  8
0
 62
0
 70
0
 66
1
 10
0.0
 20
0.0
 30
0.0
  0
VERTEX
  8
0
 10
125.385417382
 20
25.961432
  0
VERTEX
  8
0
 10
125.385417382
 20
159.311432
  0
VERTEX
  8
0
 10
149.185425
 20
159.311432
  0
VERTEX
  8
0
 10
159.18542065
 20
169.311432
  0
VERTEX
  8
0
 10
574.76392922
 20
169.311432
  0
VERTEX
  8
0
 10
584.763916
 20
159.311432
  0
VERTEX
  8
0
 10
607.985413
 20
159.311432
  0
VERTEX
  8
0
 10
607.985413
 20
25.961432
  0
SEQEND
  8
0
  0
POLYLINE
  8
0
 62
0
 70
0
 66
1
 10
0.0
 20
0.0
 30
0.0
  0
VERTEX
  8
0
 10
125.385417382
 20
25.961432
  0
VERTEX
  8
0
 10
125.385417382
 20
159.311432
  0
VERTEX
  8
0
 10
149.185425
 20
159.311432
  0
VERTEX
  8
0
 10
159.18542065
 20
169.311432
  0
VERTEX
  8
0
 10
574.76392922
 20
169.311432
  0
VERTEX
  8
0
 10
584.763916
 20
159.311432
  0
VERTEX
  8
0
 10
607.985413
 20
159.311432
  0
VERTEX
  8
0
 10
607.985413
 20
25.961432
  0
SEQEND
  8
0
  0
ENDBLK
  0
BLOCK
  8
0
  2
PAD001
 70
0
 10
0.0
 20
0.0
 30
0.0
  3
PAD001
  0
POLYLINE
  8
0
 62
0
 70
1
 66
1
 10
0.0
 20
0.0
 30
0.0
  0
VERTEX
  8
0
 10
370.0
 20
-130.0
  0
VERTEX
  8
0
 10
370.0
 20
-130.0
  0
VERTEX
  8
0
 10
360.0
 20
-130.0
  0
VERTEX
  8
0
 10
360.0
 20
-130.0
  0
SEQEND
  8
0
  0
POLYLINE
  8
0
 62
0
 70
1
 66
1
 10
0.0
 20
0.0
 30
0.0
  0
VERTEX
  8
0
 10
360.0
 20
-130.0
  0
VERTEX
  8
0
 10
360.0
 20
-130.0
  0
VERTEX
  8
0
 10
360.0
 20
-175.0
  0
VERTEX
  8
0
 10
360.0
 20
-175.0
  0
SEQEND
  8
0
  0
POLYLINE
  8
0
 62
0
 70
1
 66
1
 10
0.0
 20
0.0
 30
0.0
  0
VERTEX
  8
0
 10
360.0
 20
-175.0
  0
VERTEX
  8
0
 10
360.0
 20
-175.0
  0
VERTEX
  8
0
 10
370.0
 20
-175.0
  0
VERTEX
  8
0
 10
370.0
 20
-175.0
  0
SEQEND
  8
0
  0
POLYLINE
  8
0
 62
0
 70
1
 66
1
 10
0.0
 20
0.0
 30
0.0
  0
VERTEX
  8
0
 10
370.0
 20
-175.0
  0
VERTEX
  8
0
 10
370.0
 20
-175.0
  0
VERTEX
  8
0
 10
370.0
 20
-130.0
  0
VERTEX
  8
0
 10
370.0
 20
-130.0
  0
SEQEND
  8
0
  0
POLYLINE
  8
0
 62
0
 70
1
 66
1
 10
0.0
 20
0.0
 30
0.0
  0
VERTEX
  8
0
 10
370.0
 20
-130.0
  0
VERTEX
  8
0
 10
360.0
 20
-130.0
  0
VERTEX
  8
0
 10
360.0
 20
-175.0
  0
VERTEX
  8
0
 10
370.0
 20
-175.0
  0
SEQEND
  8
0
  0
POLYLINE
  8
0
 62
0
 70
1
 66
1
 10
0.0
 20
0.0
 30
0.0
  0
VERTEX
  8
0
 10
370.0
 20
-130.0
  0
VERTEX
  8
0
 10
360.0
 20
-130.0
  0
VERTEX
  8
0
 10
360.0
 20
-175.0
  0
VERTEX
  8
0
 10
370.0
 20
-175.0
  0
SEQEND
  8
0
  0
POLYLINE
  8
0
 62
0
 70
1
 66
1
 10
0.0
 20
0.0
 30
0.0
  0
VERTEX
  8
0
 10
390.0
 20
-130.0
  0
VERTEX
  8
0
 10
390.0
 20
-130.0
  0
VERTEX
  8
0
 10
380.0
 20
-130.0
  0
VERTEX
  8
0
 10
380.0
 20
-130.0
  0
SEQEND
  8
0
  0
POLYLINE
  8
0
 62
0
 70
1
 66
1
 10
0.0
 20
0.0
 30
0.0
  0
VERTEX
  8
0
 10
380.0
 20
-130.0
  0
VERTEX
  8
0
 10
380.0
 20
-130.0
  0
VERTEX
  8
0
 10
380.0
 20
-175.0
  0
VERTEX
  8
0
 10
380.0
 20
-175.0
  0
SEQEND
  8
0
  0
POLYLINE
  8
0
 62
0
 70
1
 66
1
 10
0.0
 20
0.0
 30
0.0
  0
VERTEX
  8
0
 10
380.0
 20
-175.0
  0
VERTEX
  8
0
 10
380.0
 20
-175.0
  0
VERTEX
  8
0
 10
390.0
 20
-175.0
  0
VERTEX
  8
0
 10
390.0
 20
-175.0
  0
SEQEND
  8
0
  0
POLYLINE
  8
0
 62
0
 70
1
 66
1
 10
0.0
 20
0.0
 30
0.0
  0
VERTEX
  8
0
 10
390.0
 20
-175.0
  0
VERTEX
  8
0
 10
390.0
 20
-175.0
  0
VERTEX
  8
0
 10
390.0
 20
-130.0
  0
VERTEX
  8
0
 10
390.0
 20
-130.0
  0
SEQEND
  8
0
  0
POLYLINE
  8
0
 62
0
 70
1
 66
1
 10
0.0
 20
0.0
 30
0.0
  0
VERTEX
  8
0
 10
390.0
 20
-130.0
  0
VERTEX
  8
0
 10
380.0
 20
-130.0
  0
VERTEX
  8
0
 10
380.0
 20
-175.0
  0
VERTEX
  8
0
 10
390.0
 20
-175.0
  0
SEQEND
  8
0
  0
POLYLINE
  8
0
 62
0
 70
1
 66
1
 10
0.0
 20
0.0
 30
0.0
  0
VERTEX
  8
0
 10
390.0
 20
-130.0
  0
VERTEX
  8
0
 10
380.0
 20
-130.0
  0
VERTEX
  8
0
 10
380.0
 20
-175.0
  0
VERTEX
  8
0
 10
390.0
 20
-175.0
  0
SEQEND
  8
0
  0
POLYLINE
  8
0
 62
0
 70
1
 66
1
 10
0.0
 20
0.0
 30
0.0
  0
VERTEX
  8
0
 10
410.0
 20
-130.0
  0
VERTEX
  8
0
 10
410.0
 20
-130.0
  0
VERTEX
  8
0
 10
400.0
 20
-130.0
  0
VERTEX
  8
0
 10
400.0
 20
-130.0
  0
SEQEND
  8
0
  0
POLYLINE
  8
0
 62
0
 70
1
 66
1
 10
0.0
 20
0.0
 30
0.0
  0
VERTEX
  8
0
 10
400.0
 20
-130.0
  0
VERTEX
  8
0
 10
400.0
 20
-130.0
  0
VERTEX
  8
0
 10
400.0
 20
-175.0
  0
VERTEX
  8
0
 10
400.0
 20
-175.0
  0
SEQEND
  8
0
  0
POLYLINE
  8
0
 62
0
 70
1
 66
1
 10
0.0
 20
0.0
 30
0.0
  0
VERTEX
  8
0
 10
400.0
 20
-175.0
  0
VERTEX
  8
0
 10
400.0
 20
-175.0
  0
VERTEX
  8
0
 10
410.0
 20
-175.0
  0
VERTEX
  8
0
 10
410.0
 20
-175.0
  0
SEQEND
  8
0
  0
POLYLINE
  8
0
 62
0
 70
1
 66
1
 10
0.0
 20
0.0
 30
0.0
  0
VERTEX
  8
0
 10
410.0
 20
-175.0
  0
VERTEX
  8
0
 10
410.0
 20
-175.0
  0
VERTEX
  8
0
 10
410.0
 20
-130.0
  0
VERTEX
  8
0
 10
410.0
 20
-130.0
  0
SEQEND
  8
0
  0
POLYLINE
  8
0
 62
0
 70
1
 66
1
 10
0.0
 20
0.0
 30
0.0
  0
VERTEX
  8
0
 10
410.0
 20
-130.0
  0
VERTEX
  8
0
 10
400.0
 20
-130.0
  0
VERTEX
  8
0
 10
400.0
 20
-175.0
  0
VERTEX
  8
0
 10
410.0
 20
-175.0
  0
SEQEND
  8
0
  0
POLYLINE
  8
0
 62
0
 70
1
 66
1
 10
0.0
 20
0.0
 30
0.0
  0
VERTEX
  8
0
 10
410.0
 20
-130.0
  0
VERTEX
  8
0
 10
400.0
 20
-130.0
  0
VERTEX
  8
0
 10
400.0
 20
-175.0
  0
VERTEX
  8
0
 10
410.0
 20
-175.0
  0
SEQEND
  8
0
  0
POLYLINE
  8
0
 62
0
 70
1
 66
1
 10
0.0
 20
0.0
 30
0.0
  0
VERTEX
  8
0
 10
430.0
 20
-130.0
  0
VERTEX
  8
0
 10
430.0
 20
-130.0
  0
VERTEX
  8
0
 10
420.0
 20
-130.0
  0
VERTEX
  8
0
 10
420.0
 20
-130.0
  0
SEQEND
  8
0
  0
POLYLINE
  8
0
 62
0
 70
1
 66
1
 10
0.0
 20
0.0
 30
0.0
  0
VERTEX
  8
0
 10
420.0
 20
-130.0
  0
VERTEX
  8
0
 10
420.0
 20
-130.0
  0
VERTEX
  8
0
 10
420.0
 20
-175.0
  0
VERTEX
  8
0
 10
420.0
 20
-175.0
  0
SEQEND
  8
0
  0
POLYLINE
  8
0
 62
0
 70
1
 66
1
 10
0.0
 20
0.0
 30
0.0
  0
VERTEX
  8
0
 10
420.0
 20
-175.0
  0
VERTEX
  8
0
 10
420.0
 20
-175.0
  0
VERTEX
  8
0
 10
430.0
 20
-175.0
  0
VERTEX
  8
0
 10
430.0
 20
-175.0
  0
SEQEND
  8
0
  0
POLYLINE
  8
0
 62
0
 70
1
 66
1
 10
0.0
 20
0.0
 30
0.0
  0
VERTEX
  8
0
 10
430.0
 20
-175.0
  0
VERTEX
  8
0
 10
430.0
 20
-175.0
  0
VERTEX
  8
0
 10
430.0
 20
-130.0
  0
VERTEX
  8
0
 10
430.0
 20
-130.0
  0
SEQEND
  8
0
  0
POLYLINE
  8
0
 62
0
 70
1
 66
1
 10
0.0
 20
0.0
 30
0.0
  0
VERTEX
  8
0
 10
430.0
 20
-130.0
  0
VERTEX
  8
0
 10
420.0
 20
-130.0
  0
VERTEX
  8
0
 10
420.0
 20
-175.0
  0
VERTEX
  8
0
 10
430.0
 20
-175.0
  0
SEQEND
  8
0
  0
POLYLINE
  8
0
 62
0
 70
1
 66
1
 10
0.0
 20
0.0
 30
0.0
  0
VERTEX
  8
0
 10
430.0
 20
-130.0
  0
VERTEX
  8
0
 10
420.0
 20
-130.0
  0
VERTEX
  8
0
 10
420.0
 20
-175.0
  0
VERTEX
  8
0
 10
430.0
 20
-175.0
  0
SEQEND
  8
0
  0
POLYLINE
  8
0
 62
0
 70
1
 66
1
 10
0.0
 20
0.0
 30
0.0
  0
VERTEX
  8
0
 10
450.0
 20
-130.0
  0
VERTEX
  8
0
 10
450.0
 20
-130.0
  0
VERTEX
  8
0
 10
440.0
 20
-130.0
  0
VERTEX
  8
0
 10
440.0
 20
-130.0
  0
SEQEND
  8
0
  0
POLYLINE
  8
0
 62
0
 70
1
 66
1
 10
0.0
 20
0.0
 30
0.0
  0
VERTEX
  8
0
 10
440.0
 20
-130.0
  0
VERTEX
  8
0
 10
440.0
 20
-130.0
  0
VERTEX
  8
0
 10
440.0
 20
-175.0
  0
VERTEX
  8
0
 10
440.0
 20
-175.0
  0
SEQEND
  8
0
  0
POLYLINE
  8
0
 62
0
 70
1
 66
1
 10
0.0
 20
0.0
 30
0.0
  0
VERTEX
  8
0
 10
440.0
 20
-175.0
  0
VERTEX
  8
0
 10
440.0
 20
-175.0
  0
VERTEX
  8
0
 10
450.0
 20
-175.0
  0
VERTEX
  8
0
 10
450.0
 20
-175.0
  0
SEQEND
  8
0
  0
POLYLINE
  8
0
 62
0
 70
1
 66
1
 10
0.0
 20
0.0
 30
0.0
  0
VERTEX
  8
0
 10
450.0
 20
-175.0
  0
VERTEX
  8
0
 10
450.0
 20
-175.0
  0
VERTEX
  8
0
 10
450.0
 20
-130.0
  0
VERTEX
  8
0
 10
450.0
 20
-130.0
  0
SEQEND
  8
0
  0
POLYLINE
  8
0
 62
0
 70
1
 66
1
 10
0.0
 20
0.0
 30
0.0
  0
VERTEX
  8
0
 10
450.0
 20
-130.0
  0
VERTEX
  8
0
 10
440.0
 20
-130.0
  0
VERTEX
  8
0
 10
440.0
 20
-175.0
  0
VERTEX
  8
0
 10
450.0
 20
-175.0
  0
SEQEND
  8
0
  0
POLYLINE
  8
0
 62
0
 70
1
 66
1
 10
0.0
 20
0.0
 30
0.0
  0
VERTEX
  8
0
 10
450.0
 20
-130.0
  0
VERTEX
  8
0
 10
440.0
 20
-130.0
  0
VERTEX
  8
0
 10
440.0
 20
-175.0
  0
VERTEX
  8
0
 10
450.0
 20
-175.0
  0
SEQEND
  8
0
  0
POLYLINE
  8
0
 62
0
 70
1
 66
1
 10
0.0
 20
0.0
 30
0.0
  0
VERTEX
  8
0
 10
470.0
 20
-130.0
  0
VERTEX
  8
0
 10
470.0
 20
-130.0
  0
VERTEX
  8
0
 10
460.0
 20
-130.0
  0
VERTEX
  8
0
 10
460.0
 20
-130.0
  0
SEQEND
  8
0
  0
POLYLINE
  8
0
 62
0
 70
1
 66
1
 10
0.0
 20
0.0
 30
0.0
  0
VERTEX
  8
0
 10
460.0
 20
-130.0
  0
VERTEX
  8
0
 10
460.0
 20
-130.0
  0
VERTEX
  8
0
 10
460.0
 20
-175.0
  0
VERTEX
  8
0
 10
460.0
 20
-175.0
  0
SEQEND
  8
0
  0
POLYLINE
  8
0
 62
0
 70
1
 66
1
 10
0.0
 20
0.0
 30
0.0
  0
VERTEX
  8
0
 10
460.0
 20
-175.0
  0
VERTEX
  8
0
 10
460.0
 20
-175.0
  0
VERTEX
  8
0
 10
470.0
 20
-175.0
  0
VERTEX
  8
0
 10
470.0
 20
-175.0
  0
SEQEND
  8
0
  0
POLYLINE
  8
0
 62
0
 70
1
 66
1
 10
0.0
 20
0.0
 30
0.0
  0
VERTEX
  8
0
 10
470.0
 20
-175.0
  0
VERTEX
  8
0
 10
470.0
 20
-175.0
  0
VERTEX
  8
0
 10
470.0
 20
-130.0
  0
VERTEX
  8
0
 10
470.0
 20
-130.0
  0
SEQEND
  8
0
  0
POLYLINE
  8
0
 62
0
 70
1
 66
1
 10
0.0
 20
0.0
 30
0.0
  0
VERTEX
  8
0
 10
470.0
 20
-130.0
  0
VERTEX
  8
0
 10
460.0
 20
-130.0
  0
VERTEX
  8
0
 10
460.0
 20
-175.0
  0
VERTEX
  8
0
 10
470.0
 20
-175.0
  0
SEQEND
  8
0
  0
POLYLINE
  8
0
 62
0
 70
1
 66
1
 10
0.0
 20
0.0
 30
0.0
  0
VERTEX
  8
0
 10
470.0
 20
-130.0
  0
VERTEX
  8
0
 10
460.0
 20
-130.0
  0
VERTEX
  8
0
 10
460.0
 20
-175.0
  0
VERTEX
  8
0
 10
470.0
 20
-175.0
  0
SEQEND
  8
0
  0
POLYLINE
  8
0
 62
0
 70
1
 66
1
 10
0.0
 20
0.0
 30
0.0
  0
VERTEX
  8
0
 10
490.0
 20
-130.0
  0
VERTEX
  8
0
 10
490.0
 20
-130.0
  0
VERTEX
  8
0
 10
480.0
 20
-130.0
  0
VERTEX
  8
0
 10
480.0
 20
-130.0
  0
SEQEND
  8
0
  0
POLYLINE
  8
0
 62
0
 70
1
 66
1
 10
0.0
 20
0.0
 30
0.0
  0
VERTEX
  8
0
 10
480.0
 20
-130.0
  0
VERTEX
  8
0
 10
480.0
 20
-130.0
  0
VERTEX
  8
0
 10
480.0
 20
-175.0
  0
VERTEX
  8
0
 10
480.0
 20
-175.0
  0
SEQEND
  8
0
  0
POLYLINE
  8
0
 62
0
 70
1
 66
1
 10
0.0
 20
0.0
 30
0.0
  0
VERTEX
  8
0
 10
480.0
 20
-175.0
  0
VERTEX
  8
0
 10
480.0
 20
-175.0
  0
VERTEX
  8
0
 10
490.0
 20
-175.0
  0
VERTEX
  8
0
 10
490.0
 20
-175.0
  0
SEQEND
  8
0
  0
POLYLINE
  8
0
 62
0
 70
1
 66
1
 10
0.0
 20
0.0
 30
0.0
  0
VERTEX
  8
0
 10
490.0
 20
-175.0
  0
VERTEX
  8
0
 10
490.0
 20
-175.0
  0
VERTEX
  8
0
 10
490.0
 20
-130.0
  0
VERTEX
  8
0
 10
490.0
 20
-130.0
  0
SEQEND
  8
0
  0
POLYLINE
  8
0
 62
0
 70
1
 66
1
 10
0.0
 20
0.0
 30
0.0
  0
VERTEX
  8
0
 10
490.0
 20
-130.0
  0
VERTEX
  8
0
 10
480.0
 20
-130.0
  0
VERTEX
  8
0
 10
480.0
 20
-175.0
  0
VERTEX
  8
0
 10
490.0
 20
-175.0
  0
SEQEND
  8
0
  0
POLYLINE
  8
0
 62
0
 70
1
 66
1
 10
0.0
 20
0.0
 30
0.0
  0
VERTEX
  8
0
 10
490.0
 20
-130.0
  0
VERTEX
  8
0
 10
480.0
 20
-130.0
  0
VERTEX
  8
0
 10
480.0
 20
-175.0
  0
VERTEX
  8
0
 10
490.0
 20
-175.0
  0
SEQEND
  8
0
  0
POLYLINE
  8
0
 62
0
 70
1
 66
1
 10
0.0
 20
0.0
 30
0.0
  0
VERTEX
  8
0
 10
510.0
 20
-130.0
  0
VERTEX
  8
0
 10
510.0
 20
-130.0
  0
VERTEX
  8
0
 10
500.0
 20
-130.0
  0
VERTEX
  8
0
 10
500.0
 20
-130.0
  0
SEQEND
  8
0
  0
POLYLINE
  8
0
 62
0
 70
1
 66
1
 10
0.0
 20
0.0
 30
0.0
  0
VERTEX
  8
0
 10
500.0
 20
-130.0
  0
VERTEX
  8
0
 10
500.0
 20
-130.0
  0
VERTEX
  8
0
 10
500.0
 20
-175.0
  0
VERTEX
  8
0
 10
500.0
 20
-175.0
  0
SEQEND
  8
0
  0
POLYLINE
  8
0
 62
0
 70
1
 66
1
 10
0.0
 20
0.0
 30
0.0
  0
VERTEX
  8
0
 10
500.0
 20
-175.0
  0
VERTEX
  8
0
 10
500.0
 20
-175.0
  0
VERTEX
  8
0
 10
510.0
 20
-175.0
  0
VERTEX
  8
0
 10
510.0
 20
-175.0
  0
SEQEND
  8
0
  0
POLYLINE
  8
0
 62
0
 70
1
 66
1
 10
0.0
 20
0.0
 30
0.0
  0
VERTEX
  8
0
 10
510.0
 20
-175.0
  0
VERTEX
  8
0
 10
510.0
 20
-175.0
  0
VERTEX
  8
0
 10
510.0
 20
-130.0
  0
VERTEX
  8
0
 10
510.0
 20
-130.0
  0
SEQEND
  8
0
  0
POLYLINE
  8
0
 62
0
 70
1
 66
1
 10
0.0
 20
0.0
 30
0.0
  0
VERTEX
  8
0
 10
510.0
 20
-130.0
  0
VERTEX
  8
0
 10
500.0
 20
-130.0
  0
VERTEX
  8
0
 10
500.0
 20
-175.0
  0
VERTEX
  8
0
 10
510.0
 20
-175.0
  0
SEQEND
  8
0
  0
POLYLINE
  8
0
 62
0
 70
1
 66
1
 10
0.0
 20
0.0
 30
0.0
  0
VERTEX
  8
0
 10
510.0
 20
-130.0
  0
VERTEX
  8
0
 10
500.0
 20
-130.0
  0
VERTEX
  8
0
 10
500.0
 20
-175.0
  0
VERTEX
  8
0
 10
510.0
 20
-175.0
  0
SEQEND
  8
0
  0
POLYLINE
  8
0
 62
0
 70
1
 66
1
 10
0.0
 20
0.0
 30
0.0
  0
VERTEX
  8
0
 10
530.0
 20
-130.0
  0
VERTEX
  8
0
 10
530.0
 20
-130.0
  0
VERTEX
  8
0
 10
520.0
 20
-130.0
  0
VERTEX
  8
0
 10
520.0
 20
-130.0
  0
SEQEND
  8
0
  0
POLYLINE
  8
0
 62
0
 70
1
 66
1
 10
0.0
 20
0.0
 30
0.0
  0
VERTEX
  8
0
 10
520.0
 20
-130.0
  0
VERTEX
  8
0
 10
520.0
 20
-130.0
  0
VERTEX
  8
0
 10
520.0
 20
-175.0
  0
VERTEX
  8
0
 10
520.0
 20
-175.0
  0
SEQEND
  8
0
  0
POLYLINE
  8
0
 62
0
 70
1
 66
1
 10
0.0
 20
0.0
 30
0.0
  0
VERTEX
  8
0
 10
520.0
 20
-175.0
  0
VERTEX
  8
0
 10
520.0
 20
-175.0
  0
VERTEX
  8
0
 10
530.0
 20
-175.0
  0
VERTEX
  8
0
 10
530.0
 20
-175.0
  0
SEQEND
  8
0
  0
POLYLINE
  8
0
 62
0
 70
1
 66
1
 10
0.0
 20
0.0
 30
0.0
  0
VERTEX
  8
0
 10
530.0
 20
-175.0
  0
VERTEX
  8
0
 10
530.0
 20
-175.0
  0
VERTEX
  8
0
 10
530.0
 20
-130.0
  0
VERTEX
  8
0
 10
530.0
 20
-130.0
  0
SEQEND
  8
0
  0
POLYLINE
  8
0
 62
0
 70
1
 66
1
 10
0.0
 20
0.0
 30
0.0
  0
VERTEX
  8
0
 10
530.0
 20
-130.0
  0
VERTEX
  8
0
 10
520.0
 20
-130.0
  0
VERTEX
  8
0
 10
520.0
 20
-175.0
  0
VERTEX
  8
0
 10
530.0
 20
-175.0
  0
SEQEND
  8
0
  0
POLYLINE
  8
0
 62
0
 70
1
 66
1
 10
0.0
 20
0.0
 30
0.0
  0
VERTEX
  8
0
 10
530.0
 20
-130.0
  0
VERTEX
  8
0
 10
520.0
 20
-130.0
  0
VERTEX
  8
0
 10
520.0
 20
-175.0
  0
VERTEX
  8
0
 10
530.0
 20
-175.0
  0
SEQEND
  8
0
  0
POLYLINE
  8
0
 62
0
 70
1
 66
1
 10
0.0
 20
0.0
 30
0.0
  0
VERTEX
  8
0
 10
540.0
 20
-130.0
  0
VERTEX
  8
0
 10
540.0
 20
-130.0
  0
VERTEX
  8
0
 10
550.0
 20
-130.0
  0
VERTEX
  8
0
 10
550.0
 20
-130.0
  0
SEQEND
  8
0
  0
POLYLINE
  8
0
 62
0
 70
1
 66
1
 10
0.0
 20
0.0
 30
0.0
  0
VERTEX
  8
0
 10
550.0
 20
-130.0
  0
VERTEX
  8
0
 10
550.0
 20
-130.0
  0
VERTEX
  8
0
 10
550.0
 20
-175.0
  0
VERTEX
  8
0
 10
550.0
 20
-175.0
  0
SEQEND
  8
0
  0
POLYLINE
  8
0
 62
0
 70
1
 66
1
 10
0.0
 20
0.0
 30
0.0
  0
VERTEX
  8
0
 10
550.0
 20
-175.0
  0
VERTEX
  8
0
 10
550.0
 20
-175.0
  0
VERTEX
  8
0
 10
540.0
 20
-175.0
  0
VERTEX
  8
0
 10
540.0
 20
-175.0
  0
SEQEND
  8
0
  0
POLYLINE
  8
0
 62
0
 70
1
 66
1
 10
0.0
 20
0.0
 30
0.0
  0
VERTEX
  8
0
 10
540.0
 20
-175.0
  0
VERTEX
  8
0
 10
540.0
 20
-175.0
  0
VERTEX
  8
0
 10
540.0
 20
-130.0
  0
VERTEX
  8
0
 10
540.0
 20
-130.0
  0
SEQEND
  8
0
  0
POLYLINE
  8
0
 62
0
 70
1
 66
1
 10
0.0
 20
0.0
 30
0.0
  0
VERTEX
  8
0
 10
540.0
 20
-130.0
  0
VERTEX
  8
0
 10
550.0
 20
-130.0
  0
VERTEX
  8
0
 10
550.0
 20
-175.0
  0
VERTEX
  8
0
 10
540.0
 20
-175.0
  0
SEQEND
  8
0
  0
POLYLINE
  8
0
 62
0
 70
1
 66
1
 10
0.0
 20
0.0
 30
0.0
  0
VERTEX
  8
0
 10
540.0
 20
-130.0
  0
VERTEX
  8
0
 10
550.0
 20
-130.0
  0
VERTEX
  8
0
 10
550.0
 20
-175.0
  0
VERTEX
  8
0
 10
540.0
 20
-175.0
  0
SEQEND
  8
0
  0
POLYLINE
  8
0
 62
0
 70
0
 66
1
 10
0.0
 20
0.0
 30
0.0
  0
VERTEX
  8
0
 10
349.5
 20
-145.0
  0
VERTEX
  8
0
 10
349.5
 20
-145.0
  0
VERTEX
  8
0
 10
349.5
 20
-145.0
  0
SEQEND
  8
0
  0
CIRCLE
  8
0
 62
0
 10
348.0
 20
-145.0
 30
0.0
 40
1.5
  0
CIRCLE
  8
0
 62
0
 10
348.0
 20
-145.0
 30
50.0
 40
1.5
  0
POLYLINE
  8
0
 62
0
 70
0
 66
1
 10
0.0
 20
0.0
 30
0.0
  0
VERTEX
  8
0
 10
361.5
 20
-120.0
  0
VERTEX
  8
0
 10
361.5
 20
-120.0
  0
VERTEX
  8
0
 10
361.5
 20
-120.0
  0
SEQEND
  8
0
  0
CIRCLE
  8
0
 62
0
 10
360.0
 20
-120.0
 30
0.0
 40
1.5
  0
CIRCLE
  8
0
 62
0
 10
360.0
 20
-120.0
 30
50.0
 40
1.5
  0
POLYLINE
  8
0
 62
0
 70
0
 66
1
 10
0.0
 20
0.0
 30
0.0
  0
VERTEX
  8
0
 10
361.5
 20
-77.0
  0
VERTEX
  8
0
 10
361.5
 20
-77.0
  0
VERTEX
  8
0
 10
361.5
 20
-77.0
  0
SEQEND
  8
0
  0
CIRCLE
  8
0
 62
0
 10
360.0
 20
-77.0
 30
0.0
 40
1.5
  0
CIRCLE
  8
0
 62
0
 10
360.0
 20
-77.0
 30
50.0
 40
1.5
  0
POLYLINE
  8
0
 62
0
 70
0
 66
1
 10
0.0
 20
0.0
 30
0.0
  0
VERTEX
  8
0
 10
563.5
 20
-145.0
  0
VERTEX
  8
0
 10
563.5
 20
-145.0
  0
VERTEX
  8
0
 10
563.5
 20
-145.0
  0
SEQEND
  8
0
  0
CIRCLE
  8
0
 62
0
 10
562.0
 20
-145.0
 30
0.0
 40
1.5
  0
CIRCLE
  8
0
 62
0
 10
562.0
 20
-145.0
 30
50.0
 40
1.5
  0
POLYLINE
  8
0
 62
0
 70
0
 66
1
 10
0.0
 20
0.0
 30
0.0
  0
VERTEX
  8
0
 10
551.5
 20
-120.0
  0
VERTEX
  8
0
 10
551.5
 20
-120.0
  0
VERTEX
  8
0
 10
551.5
 20
-120.0
  0
SEQEND
  8
0
  0
CIRCLE
  8
0
 62
0
 10
550.0
 20
-120.0
 30
0.0
 40
1.5
  0
CIRCLE
  8
0
 62
0
 10
550.0
 20
-120.0
 30
50.0
 40
1.5
  0
POLYLINE
  8
0
 62
0
 70
0
 66
1
 10
0.0
 20
0.0
 30
0.0
  0
VERTEX
  8
0
 10
551.5
 20
-77.0
  0
VERTEX
  8
0
 10
551.5
 20
-77.0
  0
VERTEX
  8
0
 10
551.5
 20
-77.0
  0
SEQEND
  8
0
  0
CIRCLE
  8
0
 62
0
 10
550.0
 20
-77.0
 30
0.0
 40
1.5
  0
CIRCLE
  8
0
 62
0
 10
550.0
 20
-77.0
 30
50.0
 40
1.5
  0
ENDBLK
  0
BLOCK
  8
0
  2
PAD002
 70
0
 10
0.0
 20
0.0
 30
0.0
  3
PAD002
  0
POLYLINE
  8
0
 62
0
 70
1
 66
1
 10
0.0
 20
0.0
 30
0.0
  0
VERTEX
  8
0
 10
370.0
 20
-260.0
  0
VERTEX
  8
0
 10
370.0
 20
-260.0
  0
VERTEX
  8
0
 10
360.0
 20
-260.0
  0
VERTEX
  8
0
 10
360.0
 20
-260.0
  0
SEQEND
  8
0
  0
POLYLINE
  8
0
 62
0
 70
1
 66
1
 10
0.0
 20
0.0
 30
0.0
  0
VERTEX
  8
0
 10
360.0
 20
-260.0
  0
VERTEX
  8
0
 10
360.0
 20
-260.0
  0
VERTEX
  8
0
 10
360.0
 20
-305.0
  0
VERTEX
  8
0
 10
360.0
 20
-305.0
  0
SEQEND
  8
0
  0
POLYLINE
  8
0
 62
0
 70
1
 66
1
 10
0.0
 20
0.0
 30
0.0
  0
VERTEX
  8
0
 10
360.0
 20
-305.0
  0
VERTEX
  8
0
 10
360.0
 20
-305.0
  0
VERTEX
  8
0
 10
370.0
 20
-305.0
  0
VERTEX
  8
0
 10
370.0
 20
-305.0
  0
SEQEND
  8
0
  0
POLYLINE
  8
0
 62
0
 70
1
 66
1
 10
0.0
 20
0.0
 30
0.0
  0
VERTEX
  8
0
 10
370.0
 20
-305.0
  0
VERTEX
  8
0
 10
370.0
 20
-305.0
  0
VERTEX
  8
0
 10
370.0
 20
-260.0
  0
VERTEX
  8
0
 10
370.0
 20
-260.0
  0
SEQEND
  8
0
  0
POLYLINE
  8
0
 62
0
 70
1
 66
1
 10
0.0
 20
0.0
 30
0.0
  0
VERTEX
  8
0
 10
370.0
 20
-260.0
  0
VERTEX
  8
0
 10
360.0
 20
-260.0
  0
VERTEX
  8
0
 10
360.0
 20
-305.0
  0
VERTEX
  8
0
 10
370.0
 20
-305.0
  0
SEQEND
  8
0
  0
POLYLINE
  8
0
 62
0
 70
1
 66
1
 10
0.0
 20
0.0
 30
0.0
  0
VERTEX
  8
0
 10
370.0
 20
-260.0
  0
VERTEX
  8
0
 10
360.0
 20
-260.0
  0
VERTEX
  8
0
 10
360.0
 20
-305.0
  0
VERTEX
  8
0
 10
370.0
 20
-305.0
  0
SEQEND
  8
0
  0
POLYLINE
  8
0
 62
0
 70
1
 66
1
 10
0.0
 20
0.0
 30
0.0
  0
VERTEX
  8
0
 10
390.0
 20
-260.0
  0
VERTEX
  8
0
 10
390.0
 20
-260.0
  0
VERTEX
  8
0
 10
380.0
 20
-260.0
  0
VERTEX
  8
0
 10
380.0
 20
-260.0
  0
SEQEND
  8
0
  0
POLYLINE
  8
0
 62
0
 70
1
 66
1
 10
0.0
 20
0.0
 30
0.0
  0
VERTEX
  8
0
 10
380.0
 20
-260.0
  0
VERTEX
  8
0
 10
380.0
 20
-260.0
  0
VERTEX
  8
0
 10
380.0
 20
-305.0
  0
VERTEX
  8
0
 10
380.0
 20
-305.0
  0
SEQEND
  8
0
  0
POLYLINE
  8
0
 62
0
 70
1
 66
1
 10
0.0
 20
0.0
 30
0.0
  0
VERTEX
  8
0
 10
380.0
 20
-305.0
  0
VERTEX
  8
0
 10
380.0
 20
-305.0
  0
VERTEX
  8
0
 10
390.0
 20
-305.0
  0
VERTEX
  8
0
 10
390.0
 20
-305.0
  0
SEQEND
  8
0
  0
POLYLINE
  8
0
 62
0
 70
1
 66
1
 10
0.0
 20
0.0
 30
0.0
  0
VERTEX
  8
0
 10
390.0
 20
-305.0
  0
VERTEX
  8
0
 10
390.0
 20
-305.0
  0
VERTEX
  8
0
 10
390.0
 20
-260.0
  0
VERTEX
  8
0
 10
390.0
 20
-260.0
  0
SEQEND
  8
0
  0
POLYLINE
  8
0
 62
0
 70
1
 66
1
 10
0.0
 20
0.0
 30
0.0
  0
VERTEX
  8
0
 10
390.0
 20
-260.0
  0
VERTEX
  8
0
 10
380.0
 20
-260.0
  0
VERTEX
  8
0
 10
380.0
 20
-305.0
  0
VERTEX
  8
0
 10
390.0
 20
-305.0
  0
SEQEND
  8
0
  0
POLYLINE
  8
0
 62
0
 70
1
 66
1
 10
0.0
 20
0.0
 30
0.0
  0
VERTEX
  8
0
 10
390.0
 20
-260.0
  0
VERTEX
  8
0
 10
380.0
 20
-260.0
  0
VERTEX
  8
0
 10
380.0
 20
-305.0
  0
VERTEX
  8
0
 10
390.0
 20
-305.0
  0
SEQEND
  8
0
  0
POLYLINE
  8
0
 62
0
 70
1
 66
1
 10
0.0
 20
0.0
 30
0.0
  0
VERTEX
  8
0
 10
410.0
 20
-260.0
  0
VERTEX
  8
0
 10
410.0
 20
-260.0
  0
VERTEX
  8
0
 10
400.0
 20
-260.0
  0
VERTEX
  8
0
 10
400.0
 20
-260.0
  0
SEQEND
  8
0
  0
POLYLINE
  8
0
 62
0
 70
1
 66
1
 10
0.0
 20
0.0
 30
0.0
  0
VERTEX
  8
0
 10
400.0
 20
-260.0
  0
VERTEX
  8
0
 10
400.0
 20
-260.0
  0
VERTEX
  8
0
 10
400.0
 20
-305.0
  0
VERTEX
  8
0
 10
400.0
 20
-305.0
  0
SEQEND
  8
0
  0
POLYLINE
  8
0
 62
0
 70
1
 66
1
 10
0.0
 20
0.0
 30
0.0
  0
VERTEX
  8
0
 10
400.0
 20
-305.0
  0
VERTEX
  8
0
 10
400.0
 20
-305.0
  0
VERTEX
  8
0
 10
410.0
 20
-305.0
  0
VERTEX
  8
0
 10
410.0
 20
-305.0
  0
SEQEND
  8
0
  0
POLYLINE
  8
0
 62
0
 70
1
 66
1
 10
0.0
 20
0.0
 30
0.0
  0
VERTEX
  8
0
 10
410.0
 20
-305.0
  0
VERTEX
  8
0
 10
410.0
 20
-305.0
  0
VERTEX
  8
0
 10
410.0
 20
-260.0
  0
VERTEX
  8
0
 10
410.0
 20
-260.0
  0
SEQEND
  8
0
  0
POLYLINE
  8
0
 62
0
 70
1
 66
1
 10
0.0
 20
0.0
 30
0.0
  0
VERTEX
  8
0
 10
410.0
 20
-260.0
  0
VERTEX
  8
0
 10
400.0
 20
-260.0
  0
VERTEX
  8
0
 10
400.0
 20
-305.0
  0
VERTEX
  8
0
 10
410.0
 20
-305.0
  0
SEQEND
  8
0
  0
POLYLINE
  8
0
 62
0
 70
1
 66
1
 10
0.0
 20
0.0
 30
0.0
  0
VERTEX
  8
0
 10
410.0
 20
-260.0
  0
VERTEX
  8
0
 10
400.0
 20
-260.0
  0
VERTEX
  8
0
 10
400.0
 20
-305.0
  0
VERTEX
  8
0
 10
410.0
 20
-305.0
  0
SEQEND
  8
0
  0
POLYLINE
  8
0
 62
0
 70
1
 66
1
 10
0.0
 20
0.0
 30
0.0
  0
VERTEX
  8
0
 10
430.0
 20
-260.0
  0
VERTEX
  8
0
 10
430.0
 20
-260.0
  0
VERTEX
  8
0
 10
420.0
 20
-260.0
  0
VERTEX
  8
0
 10
420.0
 20
-260.0
  0
SEQEND
  8
0
  0
POLYLINE
  8
0
 62
0
 70
1
 66
1
 10
0.0
 20
0.0
 30
0.0
  0
VERTEX
  8
0
 10
420.0
 20
-260.0
  0
VERTEX
  8
0
 10
420.0
 20
-260.0
  0
VERTEX
  8
0
 10
420.0
 20
-305.0
  0
VERTEX
  8
0
 10
420.0
 20
-305.0
  0
SEQEND
  8
0
  0
POLYLINE
  8
0
 62
0
 70
1
 66
1
 10
0.0
 20
0.0
 30
0.0
  0
VERTEX
  8
0
 10
420.0
 20
-305.0
  0
VERTEX
  8
0
 10
420.0
 20
-305.0
  0
VERTEX
  8
0
 10
430.0
 20
-305.0
  0
VERTEX
  8
0
 10
430.0
 20
-305.0
  0
SEQEND
  8
0
  0
POLYLINE
  8
0
 62
0
 70
1
 66
1
 10
0.0
 20
0.0
 30
0.0
  0
VERTEX
  8
0
 10
430.0
 20
-305.0
  0
VERTEX
  8
0
 10
430.0
 20
-305.0
  0
VERTEX
  8
0
 10
430.0
 20
-260.0
  0
VERTEX
  8
0
 10
430.0
 20
-260.0
  0
SEQEND
  8
0
  0
POLYLINE
  8
0
 62
0
 70
1
 66
1
 10
0.0
 20
0.0
 30
0.0
  0
VERTEX
  8
0
 10
430.0
 20
-260.0
  0
VERTEX
  8
0
 10
420.0
 20
-260.0
  0
VERTEX
  8
0
 10
420.0
 20
-305.0
  0
VERTEX
  8
0
 10
430.0
 20
-305.0
  0
SEQEND
  8
0
  0
POLYLINE
  8
0
 62
0
 70
1
 66
1
 10
0.0
 20
0.0
 30
0.0
  0
VERTEX
  8
0
 10
430.0
 20
-260.0
  0
VERTEX
  8
0
 10
420.0
 20
-260.0
  0
VERTEX
  8
0
 10
420.0
 20
-305.0
  0
VERTEX
  8
0
 10
430.0
 20
-305.0
  0
SEQEND
  8
0
  0
POLYLINE
  8
0
 62
0
 70
1
 66
1
 10
0.0
 20
0.0
 30
0.0
  0
VERTEX
  8
0
 10
450.0
 20
-260.0
  0
VERTEX
  8
0
 10
450.0
 20
-260.0
  0
VERTEX
  8
0
 10
440.0
 20
-260.0
  0
VERTEX
  8
0
 10
440.0
 20
-260.0
  0
SEQEND
  8
0
  0
POLYLINE
  8
0
 62
0
 70
1
 66
1
 10
0.0
 20
0.0
 30
0.0
  0
VERTEX
  8
0
 10
440.0
 20
-260.0
  0
VERTEX
  8
0
 10
440.0
 20
-260.0
  0
VERTEX
  8
0
 10
440.0
 20
-305.0
  0
VERTEX
  8
0
 10
440.0
 20
-305.0
  0
SEQEND
  8
0
  0
POLYLINE
  8
0
 62
0
 70
1
 66
1
 10
0.0
 20
0.0
 30
0.0
  0
VERTEX
  8
0
 10
440.0
 20
-305.0
  0
VERTEX
  8
0
 10
440.0
 20
-305.0
  0
VERTEX
  8
0
 10
450.0
 20
-305.0
  0
VERTEX
  8
0
 10
450.0
 20
-305.0
  0
SEQEND
  8
0
  0
POLYLINE
  8
0
 62
0
 70
1
 66
1
 10
0.0
 20
0.0
 30
0.0
  0
VERTEX
  8
0
 10
450.0
 20
-305.0
  0
VERTEX
  8
0
 10
450.0
 20
-305.0
  0
VERTEX
  8
0
 10
450.0
 20
-260.0
  0
VERTEX
  8
0
 10
450.0
 20
-260.0
  0
SEQEND
  8
0
  0
POLYLINE
  8
0
 62
0
 70
1
 66
1
 10
0.0
 20
0.0
 30
0.0
  0
VERTEX
  8
0
 10
450.0
 20
-260.0
  0
VERTEX
  8
0
 10
440.0
 20
-260.0
  0
VERTEX
  8
0
 10
440.0
 20
-305.0
  0
VERTEX
  8
0
 10
450.0
 20
-305.0
  0
SEQEND
  8
0
  0
POLYLINE
  8
0
 62
0
 70
1
 66
1
 10
0.0
 20
0.0
 30
0.0
  0
VERTEX
  8
0
 10
450.0
 20
-260.0
  0
VERTEX
  8
0
 10
440.0
 20
-260.0
  0
VERTEX
  8
0
 10
440.0
 20
-305.0
  0
VERTEX
  8
0
 10
450.0
 20
-305.0
  0
SEQEND
  8
0
  0
POLYLINE
  8
0
 62
0
 70
1
 66
1
 10
0.0
 20
0.0
 30
0.0
  0
VERTEX
  8
0
 10
470.0
 20
-260.0
  0
VERTEX
  8
0
 10
470.0
 20
-260.0
  0
VERTEX
  8
0
 10
460.0
 20
-260.0
  0
VERTEX
  8
0
 10
460.0
 20
-260.0
  0
SEQEND
  8
0
  0
POLYLINE
  8
0
 62
0
 70
1
 66
1
 10
0.0
 20
0.0
 30
0.0
  0
VERTEX
  8
0
 10
460.0
 20
-260.0
  0
VERTEX
  8
0
 10
460.0
 20
-260.0
  0
VERTEX
  8
0
 10
460.0
 20
-305.0
  0
VERTEX
  8
0
 10
460.0
 20
-305.0
  0
SEQEND
  8
0
  0
POLYLINE
  8
0
 62
0
 70
1
 66
1
 10
0.0
 20
0.0
 30
0.0
  0
VERTEX
  8
0
 10
460.0
 20
-305.0
  0
VERTEX
  8
0
 10
460.0
 20
-305.0
  0
VERTEX
  8
0
 10
470.0
 20
-305.0
  0
VERTEX
  8
0
 10
470.0
 20
-305.0
  0
SEQEND
  8
0
  0
POLYLINE
  8
0
 62
0
 70
1
 66
1
 10
0.0
 20
0.0
 30
0.0
  0
VERTEX
  8
0
 10
470.0
 20
-305.0
  0
VERTEX
  8
0
 10
470.0
 20
-305.0
  0
VERTEX
  8
0
 10
470.0
 20
-260.0
  0
VERTEX
  8
0
 10
470.0
 20
-260.0
  0
SEQEND
  8
0
  0
POLYLINE
  8
0
 62
0
 70
1
 66
1
 10
0.0
 20
0.0
 30
0.0
  0
VERTEX
  8
0
 10
470.0
 20
-260.0
  0
VERTEX
  8
0
 10
460.0
 20
-260.0
  0
VERTEX
  8
0
 10
460.0
 20
-305.0
  0
VERTEX
  8
0
 10
470.0
 20
-305.0
  0
SEQEND
  8
0
  0
POLYLINE
  8
0
 62
0
 70
1
 66
1
 10
0.0
 20
0.0
 30
0.0
  0
VERTEX
  8
0
 10
470.0
 20
-260.0
  0
VERTEX
  8
0
 10
460.0
 20
-260.0
  0
VERTEX
  8
0
 10
460.0
 20
-305.0
  0
VERTEX
  8
0
 10
470.0
 20
-305.0
  0
SEQEND
  8
0
  0
POLYLINE
  8
0
 62
0
 70
1
 66
1
 10
0.0
 20
0.0
 30
0.0
  0
VERTEX
  8
0
 10
490.0
 20
-260.0
  0
VERTEX
  8
0
 10
490.0
 20
-260.0
  0
VERTEX
  8
0
 10
480.0
 20
-260.0
  0
VERTEX
  8
0
 10
480.0
 20
-260.0
  0
SEQEND
  8
0
  0
POLYLINE
  8
0
 62
0
 70
1
 66
1
 10
0.0
 20
0.0
 30
0.0
  0
VERTEX
  8
0
 10
480.0
 20
-260.0
  0
VERTEX
  8
0
 10
480.0
 20
-260.0
  0
VERTEX
  8
0
 10
480.0
 20
-305.0
  0
VERTEX
  8
0
 10
480.0
 20
-305.0
  0
SEQEND
  8
0
  0
POLYLINE
  8
0
 62
0
 70
1
 66
1
 10
0.0
 20
0.0
 30
0.0
  0
VERTEX
  8
0
 10
480.0
 20
-305.0
  0
VERTEX
  8
0
 10
480.0
 20
-305.0
  0
VERTEX
  8
0
 10
490.0
 20
-305.0
  0
VERTEX
  8
0
 10
490.0
 20
-305.0
  0
SEQEND
  8
0
  0
POLYLINE
  8
0
 62
0
 70
1
 66
1
 10
0.0
 20
0.0
 30
0.0
  0
VERTEX
  8
0
 10
490.0
 20
-305.0
  0
VERTEX
  8
0
 10
490.0
 20
-305.0
  0
VERTEX
  8
0
 10
490.0
 20
-260.0
  0
VERTEX
  8
0
 10
490.0
 20
-260.0
  0
SEQEND
  8
0
  0
POLYLINE
  8
0
 62
0
 70
1
 66
1
 10
0.0
 20
0.0
 30
0.0
  0
VERTEX
  8
0
 10
490.0
 20
-260.0
  0
VERTEX
  8
0
 10
480.0
 20
-260.0
  0
VERTEX
  8
0
 10
480.0
 20
-305.0
  0
VERTEX
  8
0
 10
490.0
 20
-305.0
  0
SEQEND
  8
0
  0
POLYLINE
  8
0
 62
0
 70
1
 66
1
 10
0.0
 20
0.0
 30
0.0
  0
VERTEX
  8
0
 10
490.0
 20
-260.0
  0
VERTEX
  8
0
 10
480.0
 20
-260.0
  0
VERTEX
  8
0
 10
480.0
 20
-305.0
  0
VERTEX
  8
0
 10
490.0
 20
-305.0
  0
SEQEND
  8
0
  0
POLYLINE
  8
0
 62
0
 70
1
 66
1
 10
0.0
 20
0.0
 30
0.0
  0
VERTEX
  8
0
 10
510.0
 20
-260.0
  0
VERTEX
  8
0
 10
510.0
 20
-260.0
  0
VERTEX
  8
0
 10
500.0
 20
-260.0
  0
VERTEX
  8
0
 10
500.0
 20
-260.0
  0
SEQEND
  8
0
  0
POLYLINE
  8
0
 62
0
 70
1
 66
1
 10
0.0
 20
0.0
 30
0.0
  0
VERTEX
  8
0
 10
500.0
 20
-260.0
  0
VERTEX
  8
0
 10
500.0
 20
-260.0
  0
VERTEX
  8
0
 10
500.0
 20
-305.0
  0
VERTEX
  8
0
 10
500.0
 20
-305.0
  0
SEQEND
  8
0
  0
POLYLINE
  8
0
 62
0
 70
1
 66
1
 10
0.0
 20
0.0
 30
0.0
  0
VERTEX
  8
0
 10
500.0
 20
-305.0
  0
VERTEX
  8
0
 10
500.0
 20
-305.0
  0
VERTEX
  8
0
 10
510.0
 20
-305.0
  0
VERTEX
  8
0
 10
510.0
 20
-305.0
  0
SEQEND
  8
0
  0
POLYLINE
  8
0
 62
0
 70
1
 66
1
 10
0.0
 20
0.0
 30
0.0
  0
VERTEX
  8
0
 10
510.0
 20
-305.0
  0
VERTEX
  8
0
 10
510.0
 20
-305.0
  0
VERTEX
  8
0
 10
510.0
 20
-260.0
  0
VERTEX
  8
0
 10
510.0
 20
-260.0
  0
SEQEND
  8
0
  0
POLYLINE
  8
0
 62
0
 70
1
 66
1
 10
0.0
 20
0.0
 30
0.0
  0
VERTEX
  8
0
 10
510.0
 20
-260.0
  0
VERTEX
  8
0
 10
500.0
 20
-260.0
  0
VERTEX
  8
0
 10
500.0
 20
-305.0
  0
VERTEX
  8
0
 10
510.0
 20
-305.0
  0
SEQEND
  8
0
  0
POLYLINE
  8
0
 62
0
 70
1
 66
1
 10
0.0
 20
0.0
 30
0.0
  0
VERTEX
  8
0
 10
510.0
 20
-260.0
  0
VERTEX
  8
0
 10
500.0
 20
-260.0
  0
VERTEX
  8
0
 10
500.0
 20
-305.0
  0
VERTEX
  8
0
 10
510.0
 20
-305.0
  0
SEQEND
  8
0
  0
POLYLINE
  8
0
 62
0
 70
1
 66
1
 10
0.0
 20
0.0
 30
0.0
  0
VERTEX
  8
0
 10
530.0
 20
-260.0
  0
VERTEX
  8
0
 10
530.0
 20
-260.0
  0
VERTEX
  8
0
 10
520.0
 20
-260.0
  0
VERTEX
  8
0
 10
520.0
 20
-260.0
  0
SEQEND
  8
0
  0
POLYLINE
  8
0
 62
0
 70
1
 66
1
 10
0.0
 20
0.0
 30
0.0
  0
VERTEX
  8
0
 10
520.0
 20
-260.0
  0
VERTEX
  8
0
 10
520.0
 20
-260.0
  0
VERTEX
  8
0
 10
520.0
 20
-305.0
  0
VERTEX
  8
0
 10
520.0
 20
-305.0
  0
SEQEND
  8
0
  0
POLYLINE
  8
0
 62
0
 70
1
 66
1
 10
0.0
 20
0.0
 30
0.0
  0
VERTEX
  8
0
 10
520.0
 20
-305.0
  0
VERTEX
  8
0
 10
520.0
 20
-305.0
  0
VERTEX
  8
0
 10
530.0
 20
-305.0
  0
VERTEX
  8
0
 10
530.0
 20
-305.0
  0
SEQEND
  8
0
  0
POLYLINE
  8
0
 62
0
 70
1
 66
1
 10
0.0
 20
0.0
 30
0.0
  0
VERTEX
  8
0
 10
530.0
 20
-305.0
  0
VERTEX
  8
0
 10
530.0
 20
-305.0
  0
VERTEX
  8
0
 10
530.0
 20
-260.0
  0
VERTEX
  8
0
 10
530.0
 20
-260.0
  0
SEQEND
  8
0
  0
POLYLINE
  8
0
 62
0
 70
1
 66
1
 10
0.0
 20
0.0
 30
0.0
  0
VERTEX
  8
0
 10
530.0
 20
-260.0
  0
VERTEX
  8
0
 10
520.0
 20
-260.0
  0
VERTEX
  8
0
 10
520.0
 20
-305.0
  0
VERTEX
  8
0
 10
530.0
 20
-305.0
  0
SEQEND
  8
0
  0
POLYLINE
  8
0
 62
0
 70
1
 66
1
 10
0.0
 20
0.0
 30
0.0
  0
VERTEX
  8
0
 10
530.0
 20
-260.0
  0
VERTEX
  8
0
 10
520.0
 20
-260.0
  0
VERTEX
  8
0
 10
520.0
 20
-305.0
  0
VERTEX
  8
0
 10
530.0
 20
-305.0
  0
SEQEND
  8
0
  0
POLYLINE
  8
0
 62
0
 70
1
 66
1
 10
0.0
 20
0.0
 30
0.0
  0
VERTEX
  8
0
 10
540.0
 20
-260.0
  0
VERTEX
  8
0
 10
540.0
 20
-260.0
  0
VERTEX
  8
0
 10
550.0
 20
-260.0
  0
VERTEX
  8
0
 10
550.0
 20
-260.0
  0
SEQEND
  8
0
  0
POLYLINE
  8
0
 62
0
 70
1
 66
1
 10
0.0
 20
0.0
 30
0.0
  0
VERTEX
  8
0
 10
550.0
 20
-260.0
  0
VERTEX
  8
0
 10
550.0
 20
-260.0
  0
VERTEX
  8
0
 10
550.0
 20
-305.0
  0
VERTEX
  8
0
 10
550.0
 20
-305.0
  0
SEQEND
  8
0
  0
POLYLINE
  8
0
 62
0
 70
1
 66
1
 10
0.0
 20
0.0
 30
0.0
  0
VERTEX
  8
0
 10
550.0
 20
-305.0
  0
VERTEX
  8
0
 10
550.0
 20
-305.0
  0
VERTEX
  8
0
 10
540.0
 20
-305.0
  0
VERTEX
  8
0
 10
540.0
 20
-305.0
  0
SEQEND
  8
0
  0
POLYLINE
  8
0
 62
0
 70
1
 66
1
 10
0.0
 20
0.0
 30
0.0
  0
VERTEX
  8
0
 10
540.0
 20
-305.0
  0
VERTEX
  8
0
 10
540.0
 20
-305.0
  0
VERTEX
  8
0
 10
540.0
 20
-260.0
  0
VERTEX
  8
0
 10
540.0
 20
-260.0
  0
SEQEND
  8
0
  0
POLYLINE
  8
0
 62
0
 70
1
 66
1
 10
0.0
 20
0.0
 30
0.0
  0
VERTEX
  8
0
 10
540.0
 20
-260.0
  0
VERTEX
  8
0
 10
550.0
 20
-260.0
  0
VERTEX
  8
0
 10
550.0
 20
-305.0
  0
VERTEX
  8
0
 10
540.0
 20
-305.0
  0
SEQEND
  8
0
  0
POLYLINE
  8
0
 62
0
 70
1
 66
1
 10
0.0
 20
0.0
 30
0.0
  0
VERTEX
  8
0
 10
540.0
 20
-260.0
  0
VERTEX
  8
0
 10
550.0
 20
-260.0
  0
VERTEX
  8
0
 10
550.0
 20
-305.0
  0
VERTEX
  8
0
 10
540.0
 20
-305.0
  0
SEQEND
  8
0
  0
POLYLINE
  8
0
 62
0
 70
0
 66
1
 10
0.0
 20
0.0
 30
0.0
  0
VERTEX
  8
0
 10
349.5
 20
-275.0
  0
VERTEX
  8
0
 10
349.5
 20
-275.0
  0
VERTEX
  8
0
 10
349.5
 20
-275.0
  0
SEQEND
  8
0
  0
CIRCLE
  8
0
 62
0
 10
348.0
 20
-275.0
 30
0.0
 40
1.5
  0
CIRCLE
  8
0
 62
0
 10
348.0
 20
-275.0
 30
50.0
 40
1.5
  0
POLYLINE
  8
0
 62
0
 70
0
 66
1
 10
0.0
 20
0.0
 30
0.0
  0
VERTEX
  8
0
 10
361.5
 20
-250.0
  0
VERTEX
  8
0
 10
361.5
 20
-250.0
  0
VERTEX
  8
0
 10
361.5
 20
-250.0
  0
SEQEND
  8
0
  0
CIRCLE
  8
0
 62
0
 10
360.0
 20
-250.0
 30
0.0
 40
1.5
  0
CIRCLE
  8
0
 62
0
 10
360.0
 20
-250.0
 30
50.0
 40
1.5
  0
POLYLINE
  8
0
 62
0
 70
0
 66
1
 10
0.0
 20
0.0
 30
0.0
  0
VERTEX
  8
0
 10
361.5
 20
-207.0
  0
VERTEX
  8
0
 10
361.5
 20
-207.0
  0
VERTEX
  8
0
 10
361.5
 20
-207.0
  0
SEQEND
  8
0
  0
CIRCLE
  8
0
 62
0
 10
360.0
 20
-207.0
 30
0.0
 40
1.5
  0
CIRCLE
  8
0
 62
0
 10
360.0
 20
-207.0
 30
50.0
 40
1.5
  0
POLYLINE
  8
0
 62
0
 70
0
 66
1
 10
0.0
 20
0.0
 30
0.0
  0
VERTEX
  8
0
 10
563.5
 20
-275.0
  0
VERTEX
  8
0
 10
563.5
 20
-275.0
  0
VERTEX
  8
0
 10
563.5
 20
-275.0
  0
SEQEND
  8
0
  0
CIRCLE
  8
0
 62
0
 10
562.0
 20
-275.0
 30
0.0
 40
1.5
  0
CIRCLE
  8
0
 62
0
 10
562.0
 20
-275.0
 30
50.0
 40
1.5
  0
POLYLINE
  8
0
 62
0
 70
0
 66
1
 10
0.0
 20
0.0
 30
0.0
  0
VERTEX
  8
0
 10
551.5
 20
-250.0
  0
VERTEX
  8
0
 10
551.5
 20
-250.0
  0
VERTEX
  8
0
 10
551.5
 20
-250.0
  0
SEQEND
  8
0
  0
CIRCLE
  8
0
 62
0
 10
550.0
 20
-250.0
 30
0.0
 40
1.5
  0
CIRCLE
  8
0
 62
0
 10
550.0
 20
-250.0
 30
50.0
 40
1.5
  0
POLYLINE
  8
0
 62
0
 70
0
 66
1
 10
0.0
 20
0.0
 30
0.0
  0
VERTEX
  8
0
 10
551.5
 20
-207.0
  0
VERTEX
  8
0
 10
551.5
 20
-207.0
  0
VERTEX
  8
0
 10
551.5
 20
-207.0
  0
SEQEND
  8
0
  0
CIRCLE
  8
0
 62
0
 10
550.0
 20
-207.0
 30
0.0
 40
1.5
  0
CIRCLE
  8
0
 62
0
 10
550.0
 20
-207.0
 30
50.0
 40
1.5
  0
ENDBLK
  0
BLOCK
  8
0
  2
PAD003
 70
0
 10
0.0
 20
0.0
 30
0.0
  3
PAD003
  0
POLYLINE
  8
0
 62
0
 70
1
 66
1
 10
0.0
 20
0.0
 30
0.0
  0
VERTEX
  8
0
 10
370.0
 20
-390.0
  0
VERTEX
  8
0
 10
370.0
 20
-390.0
  0
VERTEX
  8
0
 10
360.0
 20
-390.0
  0
VERTEX
  8
0
 10
360.0
 20
-390.0
  0
SEQEND
  8
0
  0
POLYLINE
  8
0
 62
0
 70
1
 66
1
 10
0.0
 20
0.0
 30
0.0
  0
VERTEX
  8
0
 10
360.0
 20
-390.0
  0
VERTEX
  8
0
 10
360.0
 20
-390.0
  0
VERTEX
  8
0
 10
360.0
 20
-435.0
  0
VERTEX
  8
0
 10
360.0
 20
-435.0
  0
SEQEND
  8
0
  0
POLYLINE
  8
0
 62
0
 70
1
 66
1
 10
0.0
 20
0.0
 30
0.0
  0
VERTEX
  8
0
 10
360.0
 20
-435.0
  0
VERTEX
  8
0
 10
360.0
 20
-435.0
  0
VERTEX
  8
0
 10
370.0
 20
-435.0
  0
VERTEX
  8
0
 10
370.0
 20
-435.0
  0
SEQEND
  8
0
  0
POLYLINE
  8
0
 62
0
 70
1
 66
1
 10
0.0
 20
0.0
 30
0.0
  0
VERTEX
  8
0
 10
370.0
 20
-435.0
  0
VERTEX
  8
0
 10
370.0
 20
-435.0
  0
VERTEX
  8
0
 10
370.0
 20
-390.0
  0
VERTEX
  8
0
 10
370.0
 20
-390.0
  0
SEQEND
  8
0
  0
POLYLINE
  8
0
 62
0
 70
1
 66
1
 10
0.0
 20
0.0
 30
0.0
  0
VERTEX
  8
0
 10
370.0
 20
-390.0
  0
VERTEX
  8
0
 10
360.0
 20
-390.0
  0
VERTEX
  8
0
 10
360.0
 20
-435.0
  0
VERTEX
  8
0
 10
370.0
 20
-435.0
  0
SEQEND
  8
0
  0
POLYLINE
  8
0
 62
0
 70
1
 66
1
 10
0.0
 20
0.0
 30
0.0
  0
VERTEX
  8
0
 10
370.0
 20
-390.0
  0
VERTEX
  8
0
 10
360.0
 20
-390.0
  0
VERTEX
  8
0
 10
360.0
 20
-435.0
  0
VERTEX
  8
0
 10
370.0
 20
-435.0
  0
SEQEND
  8
0
  0
POLYLINE
  8
0
 62
0
 70
1
 66
1
 10
0.0
 20
0.0
 30
0.0
  0
VERTEX
  8
0
 10
390.0
 20
-390.0
  0
VERTEX
  8
0
 10
390.0
 20
-390.0
  0
VERTEX
  8
0
 10
380.0
 20
-390.0
  0
VERTEX
  8
0
 10
380.0
 20
-390.0
  0
SEQEND
  8
0
  0
POLYLINE
  8
0
 62
0
 70
1
 66
1
 10
0.0
 20
0.0
 30
0.0
  0
VERTEX
  8
0
 10
380.0
 20
-390.0
  0
VERTEX
  8
0
 10
380.0
 20
-390.0
  0
VERTEX
  8
0
 10
380.0
 20
-435.0
  0
VERTEX
  8
0
 10
380.0
 20
-435.0
  0
SEQEND
  8
0
  0
POLYLINE
  8
0
 62
0
 70
1
 66
1
 10
0.0
 20
0.0
 30
0.0
  0
VERTEX
  8
0
 10
380.0
 20
-435.0
  0
VERTEX
  8
0
 10
380.0
 20
-435.0
  0
VERTEX
  8
0
 10
390.0
 20
-435.0
  0
VERTEX
  8
0
 10
390.0
 20
-435.0
  0
SEQEND
  8
0
  0
POLYLINE
  8
0
 62
0
 70
1
 66
1
 10
0.0
 20
0.0
 30
0.0
  0
VERTEX
  8
0
 10
390.0
 20
-435.0
  0
VERTEX
  8
0
 10
390.0
 20
-435.0
  0
VERTEX
  8
0
 10
390.0
 20
-390.0
  0
VERTEX
  8
0
 10
390.0
 20
-390.0
  0
SEQEND
  8
0
  0
POLYLINE
  8
0
 62
0
 70
1
 66
1
 10
0.0
 20
0.0
 30
0.0
  0
VERTEX
  8
0
 10
390.0
 20
-390.0
  0
VERTEX
  8
0
 10
380.0
 20
-390.0
  0
VERTEX
  8
0
 10
380.0
 20
-435.0
  0
VERTEX
  8
0
 10
390.0
 20
-435.0
  0
SEQEND
  8
0
  0
POLYLINE
  8
0
 62
0
 70
1
 66
1
 10
0.0
 20
0.0
 30
0.0
  0
VERTEX
  8
0
 10
390.0
 20
-390.0
  0
VERTEX
  8
0
 10
380.0
 20
-390.0
  0
VERTEX
  8
0
 10
380.0
 20
-435.0
  0
VERTEX
  8
0
 10
390.0
 20
-435.0
  0
SEQEND
  8
0
  0
POLYLINE
  8
0
 62
0
 70
1
 66
1
 10
0.0
 20
0.0
 30
0.0
  0
VERTEX
  8
0
 10
410.0
 20
-390.0
  0
VERTEX
  8
0
 10
410.0
 20
-390.0
  0
VERTEX
  8
0
 10
400.0
 20
-390.0
  0
VERTEX
  8
0
 10
400.0
 20
-390.0
  0
SEQEND
  8
0
  0
POLYLINE
  8
0
 62
0
 70
1
 66
1
 10
0.0
 20
0.0
 30
0.0
  0
VERTEX
  8
0
 10
400.0
 20
-390.0
  0
VERTEX
  8
0
 10
400.0
 20
-390.0
  0
VERTEX
  8
0
 10
400.0
 20
-435.0
  0
VERTEX
  8
0
 10
400.0
 20
-435.0
  0
SEQEND
  8
0
  0
POLYLINE
  8
0
 62
0
 70
1
 66
1
 10
0.0
 20
0.0
 30
0.0
  0
VERTEX
  8
0
 10
400.0
 20
-435.0
  0
VERTEX
  8
0
 10
400.0
 20
-435.0
  0
VERTEX
  8
0
 10
410.0
 20
-435.0
  0
VERTEX
  8
0
 10
410.0
 20
-435.0
  0
SEQEND
  8
0
  0
POLYLINE
  8
0
 62
0
 70
1
 66
1
 10
0.0
 20
0.0
 30
0.0
  0
VERTEX
  8
0
 10
410.0
 20
-435.0
  0
VERTEX
  8
0
 10
410.0
 20
-435.0
  0
VERTEX
  8
0
 10
410.0
 20
-390.0
  0
VERTEX
  8
0
 10
410.0
 20
-390.0
  0
SEQEND
  8
0
  0
POLYLINE
  8
0
 62
0
 70
1
 66
1
 10
0.0
 20
0.0
 30
0.0
  0
VERTEX
  8
0
 10
410.0
 20
-390.0
  0
VERTEX
  8
0
 10
400.0
 20
-390.0
  0
VERTEX
  8
0
 10
400.0
 20
-435.0
  0
VERTEX
  8
0
 10
410.0
 20
-435.0
  0
SEQEND
  8
0
  0
POLYLINE
  8
0
 62
0
 70
1
 66
1
 10
0.0
 20
0.0
 30
0.0
  0
VERTEX
  8
0
 10
410.0
 20
-390.0
  0
VERTEX
  8
0
 10
400.0
 20
-390.0
  0
VERTEX
  8
0
 10
400.0
 20
-435.0
  0
VERTEX
  8
0
 10
410.0
 20
-435.0
  0
SEQEND
  8
0
  0
POLYLINE
  8
0
 62
0
 70
1
 66
1
 10
0.0
 20
0.0
 30
0.0
  0
VERTEX
  8
0
 10
430.0
 20
-390.0
  0
VERTEX
  8
0
 10
430.0
 20
-390.0
  0
VERTEX
  8
0
 10
420.0
 20
-390.0
  0
VERTEX
  8
0
 10
420.0
 20
-390.0
  0
SEQEND
  8
0
  0
POLYLINE
  8
0
 62
0
 70
1
 66
1
 10
0.0
 20
0.0
 30
0.0
  0
VERTEX
  8
0
 10
420.0
 20
-390.0
  0
VERTEX
  8
0
 10
420.0
 20
-390.0
  0
VERTEX
  8
0
 10
420.0
 20
-435.0
  0
VERTEX
  8
0
 10
420.0
 20
-435.0
  0
SEQEND
  8
0
  0
POLYLINE
  8
0
 62
0
 70
1
 66
1
 10
0.0
 20
0.0
 30
0.0
  0
VERTEX
  8
0
 10
420.0
 20
-435.0
  0
VERTEX
  8
0
 10
420.0
 20
-435.0
  0
VERTEX
  8
0
 10
430.0
 20
-435.0
  0
VERTEX
  8
0
 10
430.0
 20
-435.0
  0
SEQEND
  8
0
  0
POLYLINE
  8
0
 62
0
 70
1
 66
1
 10
0.0
 20
0.0
 30
0.0
  0
VERTEX
  8
0
 10
430.0
 20
-435.0
  0
VERTEX
  8
0
 10
430.0
 20
-435.0
  0
VERTEX
  8
0
 10
430.0
 20
-390.0
  0
VERTEX
  8
0
 10
430.0
 20
-390.0
  0
SEQEND
  8
0
  0
POLYLINE
  8
0
 62
0
 70
1
 66
1
 10
0.0
 20
0.0
 30
0.0
  0
VERTEX
  8
0
 10
430.0
 20
-390.0
  0
VERTEX
  8
0
 10
420.0
 20
-390.0
  0
VERTEX
  8
0
 10
420.0
 20
-435.0
  0
VERTEX
  8
0
 10
430.0
 20
-435.0
  0
SEQEND
  8
0
  0
POLYLINE
  8
0
 62
0
 70
1
 66
1
 10
0.0
 20
0.0
 30
0.0
  0
VERTEX
  8
0
 10
430.0
 20
-390.0
  0
VERTEX
  8
0
 10
420.0
 20
-390.0
  0
VERTEX
  8
0
 10
420.0
 20
-435.0
  0
VERTEX
  8
0
 10
430.0
 20
-435.0
  0
SEQEND
  8
0
  0
POLYLINE
  8
0
 62
0
 70
1
 66
1
 10
0.0
 20
0.0
 30
0.0
  0
VERTEX
  8
0
 10
450.0
 20
-390.0
  0
VERTEX
  8
0
 10
450.0
 20
-390.0
  0
VERTEX
  8
0
 10
440.0
 20
-390.0
  0
VERTEX
  8
0
 10
440.0
 20
-390.0
  0
SEQEND
  8
0
  0
POLYLINE
  8
0
 62
0
 70
1
 66
1
 10
0.0
 20
0.0
 30
0.0
  0
VERTEX
  8
0
 10
440.0
 20
-390.0
  0
VERTEX
  8
0
 10
440.0
 20
-390.0
  0
VERTEX
  8
0
 10
440.0
 20
-435.0
  0
VERTEX
  8
0
 10
440.0
 20
-435.0
  0
SEQEND
  8
0
  0
POLYLINE
  8
0
 62
0
 70
1
 66
1
 10
0.0
 20
0.0
 30
0.0
  0
VERTEX
  8
0
 10
440.0
 20
-435.0
  0
VERTEX
  8
0
 10
440.0
 20
-435.0
  0
VERTEX
  8
0
 10
450.0
 20
-435.0
  0
VERTEX
  8
0
 10
450.0
 20
-435.0
  0
SEQEND
  8
0
  0
POLYLINE
  8
0
 62
0
 70
1
 66
1
 10
0.0
 20
0.0
 30
0.0
  0
VERTEX
  8
0
 10
450.0
 20
-435.0
  0
VERTEX
  8
0
 10
450.0
 20
-435.0
  0
VERTEX
  8
0
 10
450.0
 20
-390.0
  0
VERTEX
  8
0
 10
450.0
 20
-390.0
  0
SEQEND
  8
0
  0
POLYLINE
  8
0
 62
0
 70
1
 66
1
 10
0.0
 20
0.0
 30
0.0
  0
VERTEX
  8
0
 10
450.0
 20
-390.0
  0
VERTEX
  8
0
 10
440.0
 20
-390.0
  0
VERTEX
  8
0
 10
440.0
 20
-435.0
  0
VERTEX
  8
0
 10
450.0
 20
-435.0
  0
SEQEND
  8
0
  0
POLYLINE
  8
0
 62
0
 70
1
 66
1
 10
0.0
 20
0.0
 30
0.0
  0
VERTEX
  8
0
 10
450.0
 20
-390.0
  0
VERTEX
  8
0
 10
440.0
 20
-390.0
  0
VERTEX
  8
0
 10
440.0
 20
-435.0
  0
VERTEX
  8
0
 10
450.0
 20
-435.0
  0
SEQEND
  8
0
  0
POLYLINE
  8
0
 62
0
 70
1
 66
1
 10
0.0
 20
0.0
 30
0.0
  0
VERTEX
  8
0
 10
470.0
 20
-390.0
  0
VERTEX
  8
0
 10
470.0
 20
-390.0
  0
VERTEX
  8
0
 10
460.0
 20
-390.0
  0
VERTEX
  8
0
 10
460.0
 20
-390.0
  0
SEQEND
  8
0
  0
POLYLINE
  8
0
 62
0
 70
1
 66
1
 10
0.0
 20
0.0
 30
0.0
  0
VERTEX
  8
0
 10
460.0
 20
-390.0
  0
VERTEX
  8
0
 10
460.0
 20
-390.0
  0
VERTEX
  8
0
 10
460.0
 20
-435.0
  0
VERTEX
  8
0
 10
460.0
 20
-435.0
  0
SEQEND
  8
0
  0
POLYLINE
  8
0
 62
0
 70
1
 66
1
 10
0.0
 20
0.0
 30
0.0
  0
VERTEX
  8
0
 10
460.0
 20
-435.0
  0
VERTEX
  8
0
 10
460.0
 20
-435.0
  0
VERTEX
  8
0
 10
470.0
 20
-435.0
  0
VERTEX
  8
0
 10
470.0
 20
-435.0
  0
SEQEND
  8
0
  0
POLYLINE
  8
0
 62
0
 70
1
 66
1
 10
0.0
 20
0.0
 30
0.0
  0
VERTEX
  8
0
 10
470.0
 20
-435.0
  0
VERTEX
  8
0
 10
470.0
 20
-435.0
  0
VERTEX
  8
0
 10
470.0
 20
-390.0
  0
VERTEX
  8
0
 10
470.0
 20
-390.0
  0
SEQEND
  8
0
  0
POLYLINE
  8
0
 62
0
 70
1
 66
1
 10
0.0
 20
0.0
 30
0.0
  0
VERTEX
  8
0
 10
470.0
 20
-390.0
  0
VERTEX
  8
0
 10
460.0
 20
-390.0
  0
VERTEX
  8
0
 10
460.0
 20
-435.0
  0
VERTEX
  8
0
 10
470.0
 20
-435.0
  0
SEQEND
  8
0
  0
POLYLINE
  8
0
 62
0
 70
1
 66
1
 10
0.0
 20
0.0
 30
0.0
  0
VERTEX
  8
0
 10
470.0
 20
-390.0
  0
VERTEX
  8
0
 10
460.0
 20
-390.0
  0
VERTEX
  8
0
 10
460.0
 20
-435.0
  0
VERTEX
  8
0
 10
470.0
 20
-435.0
  0
SEQEND
  8
0
  0
POLYLINE
  8
0
 62
0
 70
1
 66
1
 10
0.0
 20
0.0
 30
0.0
  0
VERTEX
  8
0
 10
490.0
 20
-390.0
  0
VERTEX
  8
0
 10
490.0
 20
-390.0
  0
VERTEX
  8
0
 10
480.0
 20
-390.0
  0
VERTEX
  8
0
 10
480.0
 20
-390.0
  0
SEQEND
  8
0
  0
POLYLINE
  8
0
 62
0
 70
1
 66
1
 10
0.0
 20
0.0
 30
0.0
  0
VERTEX
  8
0
 10
480.0
 20
-390.0
  0
VERTEX
  8
0
 10
480.0
 20
-390.0
  0
VERTEX
  8
0
 10
480.0
 20
-435.0
  0
VERTEX
  8
0
 10
480.0
 20
-435.0
  0
SEQEND
  8
0
  0
POLYLINE
  8
0
 62
0
 70
1
 66
1
 10
0.0
 20
0.0
 30
0.0
  0
VERTEX
  8
0
 10
480.0
 20
-435.0
  0
VERTEX
  8
0
 10
480.0
 20
-435.0
  0
VERTEX
  8
0
 10
490.0
 20
-435.0
  0
VERTEX
  8
0
 10
490.0
 20
-435.0
  0
SEQEND
  8
0
  0
POLYLINE
  8
0
 62
0
 70
1
 66
1
 10
0.0
 20
0.0
 30
0.0
  0
VERTEX
  8
0
 10
490.0
 20
-435.0
  0
VERTEX
  8
0
 10
490.0
 20
-435.0
  0
VERTEX
  8
0
 10
490.0
 20
-390.0
  0
VERTEX
  8
0
 10
490.0
 20
-390.0
  0
SEQEND
  8
0
  0
POLYLINE
  8
0
 62
0
 70
1
 66
1
 10
0.0
 20
0.0
 30
0.0
  0
VERTEX
  8
0
 10
490.0
 20
-390.0
  0
VERTEX
  8
0
 10
480.0
 20
-390.0
  0
VERTEX
  8
0
 10
480.0
 20
-435.0
  0
VERTEX
  8
0
 10
490.0
 20
-435.0
  0
SEQEND
  8
0
  0
POLYLINE
  8
0
 62
0
 70
1
 66
1
 10
0.0
 20
0.0
 30
0.0
  0
VERTEX
  8
0
 10
490.0
 20
-390.0
  0
VERTEX
  8
0
 10
480.0
 20
-390.0
  0
VERTEX
  8
0
 10
480.0
 20
-435.0
  0
VERTEX
  8
0
 10
490.0
 20
-435.0
  0
SEQEND
  8
0
  0
POLYLINE
  8
0
 62
0
 70
1
 66
1
 10
0.0
 20
0.0
 30
0.0
  0
VERTEX
  8
0
 10
510.0
 20
-390.0
  0
VERTEX
  8
0
 10
510.0
 20
-390.0
  0
VERTEX
  8
0
 10
500.0
 20
-390.0
  0
VERTEX
  8
0
 10
500.0
 20
-390.0
  0
SEQEND
  8
0
  0
POLYLINE
  8
0
 62
0
 70
1
 66
1
 10
0.0
 20
0.0
 30
0.0
  0
VERTEX
  8
0
 10
500.0
 20
-390.0
  0
VERTEX
  8
0
 10
500.0
 20
-390.0
  0
VERTEX
  8
0
 10
500.0
 20
-435.0
  0
VERTEX
  8
0
 10
500.0
 20
-435.0
  0
SEQEND
  8
0
  0
POLYLINE
  8
0
 62
0
 70
1
 66
1
 10
0.0
 20
0.0
 30
0.0
  0
VERTEX
  8
0
 10
500.0
 20
-435.0
  0
VERTEX
  8
0
 10
500.0
 20
-435.0
  0
VERTEX
  8
0
 10
510.0
 20
-435.0
  0
VERTEX
  8
0
 10
510.0
 20
-435.0
  0
SEQEND
  8
0
  0
POLYLINE
  8
0
 62
0
 70
1
 66
1
 10
0.0
 20
0.0
 30
0.0
  0
VERTEX
  8
0
 10
510.0
 20
-435.0
  0
VERTEX
  8
0
 10
510.0
 20
-435.0
  0
VERTEX
  8
0
 10
510.0
 20
-390.0
  0
VERTEX
  8
0
 10
510.0
 20
-390.0
  0
SEQEND
  8
0
  0
POLYLINE
  8
0
 62
0
 70
1
 66
1
 10
0.0
 20
0.0
 30
0.0
  0
VERTEX
  8
0
 10
510.0
 20
-390.0
  0
VERTEX
  8
0
 10
500.0
 20
-390.0
  0
VERTEX
  8
0
 10
500.0
 20
-435.0
  0
VERTEX
  8
0
 10
510.0
 20
-435.0
  0
SEQEND
  8
0
  0
POLYLINE
  8
0
 62
0
 70
1
 66
1
 10
0.0
 20
0.0
 30
0.0
  0
VERTEX
  8
0
 10
510.0
 20
-390.0
  0
VERTEX
  8
0
 10
500.0
 20
-390.0
  0
VERTEX
  8
0
 10
500.0
 20
-435.0
  0
VERTEX
  8
0
 10
510.0
 20
-435.0
  0
SEQEND
  8
0
  0
POLYLINE
  8
0
 62
0
 70
1
 66
1
 10
0.0
 20
0.0
 30
0.0
  0
VERTEX
  8
0
 10
530.0
 20
-390.0
  0
VERTEX
  8
0
 10
530.0
 20
-390.0
  0
VERTEX
  8
0
 10
520.0
 20
-390.0
  0
VERTEX
  8
0
 10
520.0
 20
-390.0
  0
SEQEND
  8
0
  0
POLYLINE
  8
0
 62
0
 70
1
 66
1
 10
0.0
 20
0.0
 30
0.0
  0
VERTEX
  8
0
 10
520.0
 20
-390.0
  0
VERTEX
  8
0
 10
520.0
 20
-390.0
  0
VERTEX
  8
0
 10
520.0
 20
-435.0
  0
VERTEX
  8
0
 10
520.0
 20
-435.0
  0
SEQEND
  8
0
  0
POLYLINE
  8
0
 62
0
 70
1
 66
1
 10
0.0
 20
0.0
 30
0.0
  0
VERTEX
  8
0
 10
520.0
 20
-435.0
  0
VERTEX
  8
0
 10
520.0
 20
-435.0
  0
VERTEX
  8
0
 10
530.0
 20
-435.0
  0
VERTEX
  8
0
 10
530.0
 20
-435.0
  0
SEQEND
  8
0
  0
POLYLINE
  8
0
 62
0
 70
1
 66
1
 10
0.0
 20
0.0
 30
0.0
  0
VERTEX
  8
0
 10
530.0
 20
-435.0
  0
VERTEX
  8
0
 10
530.0
 20
-435.0
  0
VERTEX
  8
0
 10
530.0
 20
-390.0
  0
VERTEX
  8
0
 10
530.0
 20
-390.0
  0
SEQEND
  8
0
  0
POLYLINE
  8
0
 62
0
 70
1
 66
1
 10
0.0
 20
0.0
 30
0.0
  0
VERTEX
  8
0
 10
530.0
 20
-390.0
  0
VERTEX
  8
0
 10
520.0
 20
-390.0
  0
VERTEX
  8
0
 10
520.0
 20
-435.0
  0
VERTEX
  8
0
 10
530.0
 20
-435.0
  0
SEQEND
  8
0
  0
POLYLINE
  8
0
 62
0
 70
1
 66
1
 10
0.0
 20
0.0
 30
0.0
  0
VERTEX
  8
0
 10
530.0
 20
-390.0
  0
VERTEX
  8
0
 10
520.0
 20
-390.0
  0
VERTEX
  8
0
 10
520.0
 20
-435.0
  0
VERTEX
  8
0
 10
530.0
 20
-435.0
  0
SEQEND
  8
0
  0
POLYLINE
  8
0
 62
0
 70
1
 66
1
 10
0.0
 20
0.0
 30
0.0
  0
VERTEX
  8
0
 10
540.0
 20
-390.0
  0
VERTEX
  8
0
 10
540.0
 20
-390.0
  0
VERTEX
  8
0
 10
550.0
 20
-390.0
  0
VERTEX
  8
0
 10
550.0
 20
-390.0
  0
SEQEND
  8
0
  0
POLYLINE
  8
0
 62
0
 70
1
 66
1
 10
0.0
 20
0.0
 30
0.0
  0
VERTEX
  8
0
 10
550.0
 20
-390.0
  0
VERTEX
  8
0
 10
550.0
 20
-390.0
  0
VERTEX
  8
0
 10
550.0
 20
-435.0
  0
VERTEX
  8
0
 10
550.0
 20
-435.0
  0
SEQEND
  8
0
  0
POLYLINE
  8
0
 62
0
 70
1
 66
1
 10
0.0
 20
0.0
 30
0.0
  0
VERTEX
  8
0
 10
550.0
 20
-435.0
  0
VERTEX
  8
0
 10
550.0
 20
-435.0
  0
VERTEX
  8
0
 10
540.0
 20
-435.0
  0
VERTEX
  8
0
 10
540.0
 20
-435.0
  0
SEQEND
  8
0
  0
POLYLINE
  8
0
 62
0
 70
1
 66
1
 10
0.0
 20
0.0
 30
0.0
  0
VERTEX
  8
0
 10
540.0
 20
-435.0
  0
VERTEX
  8
0
 10
540.0
 20
-435.0
  0
VERTEX
  8
0
 10
540.0
 20
-390.0
  0
VERTEX
  8
0
 10
540.0
 20
-390.0
  0
SEQEND
  8
0
  0
POLYLINE
  8
0
 62
0
 70
1
 66
1
 10
0.0
 20
0.0
 30
0.0
  0
VERTEX
  8
0
 10
540.0
 20
-390.0
  0
VERTEX
  8
0
 10
550.0
 20
-390.0
  0
VERTEX
  8
0
 10
550.0
 20
-435.0
  0
VERTEX
  8
0
 10
540.0
 20
-435.0
  0
SEQEND
  8
0
  0
POLYLINE
  8
0
 62
0
 70
1
 66
1
 10
0.0
 20
0.0
 30
0.0
  0
VERTEX
  8
0
 10
540.0
 20
-390.0
  0
VERTEX
  8
0
 10
550.0
 20
-390.0
  0
VERTEX
  8
0
 10
550.0
 20
-435.0
  0
VERTEX
  8
0
 10
540.0
 20
-435.0
  0
SEQEND
  8
0
  0
POLYLINE
  8
0
 62
0
 70
0
 66
1
 10
0.0
 20
0.0
 30
0.0
  0
VERTEX
  8
0
 10
349.5
 20
-405.0
  0
VERTEX
  8
0
 10
349.5
 20
-405.0
  0
VERTEX
  8
0
 10
349.5
 20
-405.0
  0
SEQEND
  8
0
  0
CIRCLE
  8
0
 62
0
 10
348.0
 20
-405.0
 30
0.0
 40
1.5
  0
CIRCLE
  8
0
 62
0
 10
348.0
 20
-405.0
 30
50.0
 40
1.5
  0
POLYLINE
  8
0
 62
0
 70
0
 66
1
 10
0.0
 20
0.0
 30
0.0
  0
VERTEX
  8
0
 10
361.5
 20
-380.0
  0
VERTEX
  8
0
 10
361.5
 20
-380.0
  0
VERTEX
  8
0
 10
361.5
 20
-380.0
  0
SEQEND
  8
0
  0
CIRCLE
  8
0
 62
0
 10
360.0
 20
-380.0
 30
0.0
 40
1.5
  0
CIRCLE
  8
0
 62
0
 10
360.0
 20
-380.0
 30
50.0
 40
1.5
  0
POLYLINE
  8
0
 62
0
 70
0
 66
1
 10
0.0
 20
0.0
 30
0.0
  0
VERTEX
  8
0
 10
361.5
 20
-337.0
  0
VERTEX
  8
0
 10
361.5
 20
-337.0
  0
VERTEX
  8
0
 10
361.5
 20
-337.0
  0
SEQEND
  8
0
  0
CIRCLE
  8
0
 62
0
 10
360.0
 20
-337.0
 30
0.0
 40
1.5
  0
CIRCLE
  8
0
 62
0
 10
360.0
 20
-337.0
 30
50.0
 40
1.5
  0
POLYLINE
  8
0
 62
0
 70
0
 66
1
 10
0.0
 20
0.0
 30
0.0
  0
VERTEX
  8
0
 10
563.5
 20
-405.0
  0
VERTEX
  8
0
 10
563.5
 20
-405.0
  0
VERTEX
  8
0
 10
563.5
 20
-405.0
  0
SEQEND
  8
0
  0
CIRCLE
  8
0
 62
0
 10
562.0
 20
-405.0
 30
0.0
 40
1.5
  0
CIRCLE
  8
0
 62
0
 10
562.0
 20
-405.0
 30
50.0
 40
1.5
  0
POLYLINE
  8
0
 62
0
 70
0
 66
1
 10
0.0
 20
0.0
 30
0.0
  0
VERTEX
  8
0
 10
551.5
 20
-380.0
  0
VERTEX
  8
0
 10
551.5
 20
-380.0
  0
VERTEX
  8
0
 10
551.5
 20
-380.0
  0
SEQEND
  8
0
  0
CIRCLE
  8
0
 62
0
 10
550.0
 20
-380.0
 30
0.0
 40
1.5
  0
CIRCLE
  8
0
 62
0
 10
550.0
 20
-380.0
 30
50.0
 40
1.5
  0
POLYLINE
  8
0
 62
0
 70
0
 66
1
 10
0.0
 20
0.0
 30
0.0
  0
VERTEX
  8
0
 10
551.5
 20
-337.0
  0
VERTEX
  8
0
 10
551.5
 20
-337.0
  0
VERTEX
  8
0
 10
551.5
 20
-337.0
  0
SEQEND
  8
0
  0
CIRCLE
  8
0
 62
0
 10
550.0
 20
-337.0
 30
0.0
 40
1.5
  0
CIRCLE
  8
0
 62
0
 10
550.0
 20
-337.0
 30
50.0
 40
1.5
  0
ENDBLK
  0
BLOCK
  8
0
  2
PAD004
 70
0
 10
0.0
 20
0.0
 30
0.0
  3
PAD004
  0
POLYLINE
  8
0
 62
0
 70
0
 66
1
 10
0.0
 20
0.0
 30
0.0
  0
VERTEX
  8
0
 10
221.5
 20
-320.0
  0
VERTEX
  8
0
 10
221.5
 20
-320.0
  0
VERTEX
  8
0
 10
221.5
 20
-320.0
  0
SEQEND
  8
0
  0
CIRCLE
  8
0
 62
0
 10
220.0
 20
-320.0
 30
0.0
 40
1.5
  0
CIRCLE
  8
0
 62
0
 10
220.0
 20
-320.0
 30
50.0
 40
1.5
  0
POLYLINE
  8
0
 62
0
 70
0
 66
1
 10
0.0
 20
0.0
 30
0.0
  0
VERTEX
  8
0
 10
272.5
 20
-320.0
  0
VERTEX
  8
0
 10
272.5
 20
-320.0
  0
VERTEX
  8
0
 10
272.5
 20
-320.0
  0
SEQEND
  8
0
  0
CIRCLE
  8
0
 62
0
 10
271.0
 20
-320.0
 30
0.0
 40
1.5
  0
CIRCLE
  8
0
 62
0
 10
271.0
 20
-320.0
 30
50.0
 40
1.5
  0
POLYLINE
  8
0
 62
0
 70
0
 66
1
 10
0.0
 20
0.0
 30
0.0
  0
VERTEX
  8
0
 10
272.5
 20
-284.5
  0
VERTEX
  8
0
 10
272.5
 20
-284.5
  0
VERTEX
  8
0
 10
272.5
 20
-284.5
  0
SEQEND
  8
0
  0
CIRCLE
  8
0
 62
0
 10
271.0
 20
-284.5
 30
0.0
 40
1.5
  0
CIRCLE
  8
0
 62
0
 10
271.0
 20
-284.5
 30
50.0
 40
1.5
  0
POLYLINE
  8
0
 62
0
 70
0
 66
1
 10
0.0
 20
0.0
 30
0.0
  0
VERTEX
  8
0
 10
221.5
 20
-284.5
  0
VERTEX
  8
0
 10
221.5
 20
-284.5
  0
VERTEX
  8
0
 10
221.5
 20
-284.5
  0
SEQEND
  8
0
  0
CIRCLE
  8
0
 62
0
 10
220.0
 20
-284.5
 30
0.0
 40
1.5
  0
CIRCLE
  8
0
 62
0
 10
220.0
 20
-284.5
 30
50.0
 40
1.5
  0
ENDBLK
  0
BLOCK
  8
0
  2
PAD005
 70
0
 10
0.0
 20
0.0
 30
0.0
  3
PAD005
  0
POLYLINE
  8
0
 62
0
 70
0
 66
1
 10
0.0
 20
0.0
 30
0.0
  0
VERTEX
  8
0
 10
221.5
 20
-380.0
  0
VERTEX
  8
0
 10
221.5
 20
-380.0
  0
VERTEX
  8
0
 10
221.5
 20
-380.0
  0
SEQEND
  8
0
  0
CIRCLE
  8
0
 62
0
 10
220.0
 20
-380.0
 30
0.0
 40
1.5
  0
CIRCLE
  8
0
 62
0
 10
220.0
 20
-380.0
 30
50.0
 40
1.5
  0
POLYLINE
  8
0
 62
0
 70
0
 66
1
 10
0.0
 20
0.0
 30
0.0
  0
VERTEX
  8
0
 10
334.0
 20
-380.0
  0
VERTEX
  8
0
 10
334.0
 20
-380.0
  0
VERTEX
  8
0
 10
334.0
 20
-380.0
  0
SEQEND
  8
0
  0
CIRCLE
  8
0
 62
0
 10
332.5
 20
-380.0
 30
0.0
 40
1.5
  0
CIRCLE
  8
0
 62
0
 10
332.5
 20
-380.0
 30
50.0
 40
1.5
  0
POLYLINE
  8
0
 62
0
 70
0
 66
1
 10
0.0
 20
0.0
 30
0.0
  0
VERTEX
  8
0
 10
334.0
 20
-350.0
  0
VERTEX
  8
0
 10
334.0
 20
-350.0
  0
VERTEX
  8
0
 10
334.0
 20
-350.0
  0
SEQEND
  8
0
  0
CIRCLE
  8
0
 62
0
 10
332.5
 20
-350.0
 30
0.0
 40
1.5
  0
CIRCLE
  8
0
 62
0
 10
332.5
 20
-350.0
 30
50.0
 40
1.5
  0
POLYLINE
  8
0
 62
0
 70
0
 66
1
 10
0.0
 20
0.0
 30
0.0
  0
VERTEX
  8
0
 10
221.5
 20
-350.0
  0
VERTEX
  8
0
 10
221.5
 20
-350.0
  0
VERTEX
  8
0
 10
221.5
 20
-350.0
  0
SEQEND
  8
0
  0
CIRCLE
  8
0
 62
0
 10
220.0
 20
-350.0
 30
0.0
 40
1.5
  0
CIRCLE
  8
0
 62
0
 10
220.0
 20
-350.0
 30
50.0
 40
1.5
  0
ENDBLK
  0
BLOCK
  8
0
  2
PAD006
 70
0
 10
0.0
 20
0.0
 30
0.0
  3
PAD006
  0
POLYLINE
  8
0
 62
0
 70
0
 66
1
 10
0.0
 20
0.0
 30
0.0
  0
VERTEX
  8
0
 10
221.5
 20
-250.0
  0
VERTEX
  8
0
 10
221.5
 20
-250.0
  0
VERTEX
  8
0
 10
221.5
 20
-250.0
  0
SEQEND
  8
0
  0
CIRCLE
  8
0
 62
0
 10
220.0
 20
-250.0
 30
0.0
 40
1.5
  0
CIRCLE
  8
0
 62
0
 10
220.0
 20
-250.0
 30
50.0
 40
1.5
  0
POLYLINE
  8
0
 62
0
 70
0
 66
1
 10
0.0
 20
0.0
 30
0.0
  0
VERTEX
  8
0
 10
334.0
 20
-250.0
  0
VERTEX
  8
0
 10
334.0
 20
-250.0
  0
VERTEX
  8
0
 10
334.0
 20
-250.0
  0
SEQEND
  8
0
  0
CIRCLE
  8
0
 62
0
 10
332.5
 20
-250.0
 30
0.0
 40
1.5
  0
CIRCLE
  8
0
 62
0
 10
332.5
 20
-250.0
 30
50.0
 40
1.5
  0
POLYLINE
  8
0
 62
0
 70
0
 66
1
 10
0.0
 20
0.0
 30
0.0
  0
VERTEX
  8
0
 10
334.0
 20
-220.0
  0
VERTEX
  8
0
 10
334.0
 20
-220.0
  0
VERTEX
  8
0
 10
334.0
 20
-220.0
  0
SEQEND
  8
0
  0
CIRCLE
  8
0
 62
0
 10
332.5
 20
-220.0
 30
0.0
 40
1.5
  0
CIRCLE
  8
0
 62
0
 10
332.5
 20
-220.0
 30
50.0
 40
1.5
  0
POLYLINE
  8
0
 62
0
 70
0
 66
1
 10
0.0
 20
0.0
 30
0.0
  0
VERTEX
  8
0
 10
221.5
 20
-220.0
  0
VERTEX
  8
0
 10
221.5
 20
-220.0
  0
VERTEX
  8
0
 10
221.5
 20
-220.0
  0
SEQEND
  8
0
  0
CIRCLE
  8
0
 62
0
 10
220.0
 20
-220.0
 30
0.0
 40
1.5
  0
CIRCLE
  8
0
 62
0
 10
220.0
 20
-220.0
 30
50.0
 40
1.5
  0
ENDBLK
  0
BLOCK
  8
0
  2
PAD007
 70
0
 10
0.0
 20
0.0
 30
0.0
  3
PAD007
  0
POLYLINE
  8
0
 62
0
 70
0
 66
1
 10
0.0
 20
0.0
 30
0.0
  0
VERTEX
  8
0
 10
221.5
 20
-120.0
  0
VERTEX
  8
0
 10
221.5
 20
-120.0
  0
VERTEX
  8
0
 10
221.5
 20
-120.0
  0
SEQEND
  8
0
  0
CIRCLE
  8
0
 62
0
 10
220.0
 20
-120.0
 30
0.0
 40
1.5
  0
CIRCLE
  8
0
 62
0
 10
220.0
 20
-120.0
 30
50.0
 40
1.5
  0
POLYLINE
  8
0
 62
0
 70
0
 66
1
 10
0.0
 20
0.0
 30
0.0
  0
VERTEX
  8
0
 10
334.0
 20
-120.0
  0
VERTEX
  8
0
 10
334.0
 20
-120.0
  0
VERTEX
  8
0
 10
334.0
 20
-120.0
  0
SEQEND
  8
0
  0
CIRCLE
  8
0
 62
0
 10
332.5
 20
-120.0
 30
0.0
 40
1.5
  0
CIRCLE
  8
0
 62
0
 10
332.5
 20
-120.0
 30
50.0
 40
1.5
  0
POLYLINE
  8
0
 62
0
 70
0
 66
1
 10
0.0
 20
0.0
 30
0.0
  0
VERTEX
  8
0
 10
334.0
 20
-90.0
  0
VERTEX
  8
0
 10
334.0
 20
-90.0
  0
VERTEX
  8
0
 10
334.0
 20
-90.0
  0
SEQEND
  8
0
  0
CIRCLE
  8
0
 62
0
 10
332.5
 20
-90.0
 30
0.0
 40
1.5
  0
CIRCLE
  8
0
 62
0
 10
332.5
 20
-90.0
 30
50.0
 40
1.5
  0
POLYLINE
  8
0
 62
0
 70
0
 66
1
 10
0.0
 20
0.0
 30
0.0
  0
VERTEX
  8
0
 10
221.5
 20
-90.0
  0
VERTEX
  8
0
 10
221.5
 20
-90.0
  0
VERTEX
  8
0
 10
221.5
 20
-90.0
  0
SEQEND
  8
0
  0
CIRCLE
  8
0
 62
0
 10
220.0
 20
-90.0
 30
0.0
 40
1.5
  0
CIRCLE
  8
0
 62
0
 10
220.0
 20
-90.0
 30
50.0
 40
1.5
  0
ENDBLK
  0
BLOCK
  8
0
  2
PAD009
 70
0
 10
0.0
 20
0.0
 30
0.0
  3
PAD009
  0
POLYLINE
  8
0
 62
0
 70
0
 66
1
 10
0.0
 20
0.0
 30
0.0
  0
VERTEX
  8
0
 10
251.5
 20
120.0
  0
VERTEX
  8
0
 10
251.5
 20
120.0
  0
VERTEX
  8
0
 10
251.5
 20
120.0
  0
SEQEND
  8
0
  0
CIRCLE
  8
0
 62
0
 10
240.0
 20
120.0
 30
0.0
 40
11.5
  0
CIRCLE
  8
0
 62
0
 10
240.0
 20
120.0
 30
50.0
 40
11.5
  0
POLYLINE
  8
0
 62
0
 70
0
 66
1
 10
0.0
 20
0.0
 30
0.0
  0
VERTEX
  8
0
 10
209.228818
 20
120.016884
  0
VERTEX
  8
0
 10
209.228818
 20
120.016884
  0
VERTEX
  8
0
 10
209.228818
 20
120.016884
  0
SEQEND
  8
0
  0
CIRCLE
  8
0
 62
0
 10
199.928818
 20
120.016884
 30
0.0
 40
9.3
  0
CIRCLE
  8
0
 62
0
 10
199.928818
 20
120.016884
 30
50.0
 40
9.3
  0
POLYLINE
  8
0
 62
0
 70
0
 66
1
 10
0.0
 20
0.0
 30
0.0
  0
VERTEX
  8
0
 10
250.0
 20
133.5
  0
VERTEX
  8
0
 10
250.0
 20
133.5
  0
VERTEX
  8
0
 10
250.0
 20
133.5
  0
SEQEND
  8
0
  0
CIRCLE
  8
0
 62
0
 10
248.5
 20
133.5
 30
0.0
 40
1.5
  0
CIRCLE
  8
0
 62
0
 10
248.5
 20
133.5
 30
50.0
 40
1.5
  0
POLYLINE
  8
0
 62
0
 70
0
 66
1
 10
0.0
 20
0.0
 30
0.0
  0
VERTEX
  8
0
 10
201.428818
 20
133.516884
  0
VERTEX
  8
0
 10
201.428818
 20
133.516884
  0
VERTEX
  8
0
 10
201.428818
 20
133.516884
  0
SEQEND
  8
0
  0
CIRCLE
  8
0
 62
0
 10
199.928818
 20
133.516884
 30
0.0
 40
1.5
  0
CIRCLE
  8
0
 62
0
 10
199.928818
 20
133.516884
 30
50.0
 40
1.5
  0
POLYLINE
  8
0
 62
0
 70
0
 66
1
 10
0.0
 20
0.0
 30
0.0
  0
VERTEX
  8
0
 10
233.0
 20
106.5
  0
VERTEX
  8
0
 10
233.0
 20
106.5
  0
VERTEX
  8
0
 10
233.0
 20
106.5
  0
SEQEND
  8
0
  0
CIRCLE
  8
0
 62
0
 10
231.5
 20
106.5
 30
0.0
 40
1.5
  0
CIRCLE
  8
0
 62
0
 10
231.5
 20
106.5
 30
50.0
 40
1.5
  0
POLYLINE
  8
0
 62
0
 70
0
 66
1
 10
0.0
 20
0.0
 30
0.0
  0
VERTEX
  8
0
 10
201.428818
 20
106.516884
  0
VERTEX
  8
0
 10
201.428818
 20
106.516884
  0
VERTEX
  8
0
 10
201.428818
 20
106.516884
  0
SEQEND
  8
0
  0
CIRCLE
  8
0
 62
0
 10
199.928818
 20
106.516884
 30
0.0
 40
1.5
  0
CIRCLE
  8
0
 62
0
 10
199.928818
 20
106.516884
 30
50.0
 40
1.5
  0
ENDBLK
  0
BLOCK
  8
0
  2
PAD010
 70
0
 10
0.0
 20
0.0
 30
0.0
  3
PAD010
  0
POLYLINE
  8
0
 62
0
 70
0
 66
1
 10
0.0
 20
0.0
 30
0.0
  0
VERTEX
  8
0
 10
230.0
 20
-520.0
  0
VERTEX
  8
0
 10
230.0
 20
-520.0
  0
VERTEX
  8
0
 10
230.0
 20
-520.0
  0
SEQEND
  8
0
  0
CIRCLE
  8
0
 62
0
 10
200.0
 20
-520.0
 30
0.0
 40
30.0
  0
CIRCLE
  8
0
 62
0
 10
200.0
 20
-520.0
 30
50.0
 40
30.0
  0
POLYLINE
  8
0
 62
0
 70
1
 66
1
 10
0.0
 20
0.0
 30
0.0
  0
VERTEX
  8
0
 10
263.877548
 20
-496.411363557
  0
VERTEX
  8
0
 10
263.877548
 20
-496.411363557
  0
VERTEX
  8
0
 10
338.877548
 20
-496.411363557
  0
VERTEX
  8
0
 10
338.877548
 20
-496.411363557
  0
SEQEND
  8
0
  0
POLYLINE
  8
0
 62
0
 70
1
 66
1
 10
0.0
 20
0.0
 30
0.0
  0
VERTEX
  8
0
 10
338.877548
 20
-496.411363557
  0
VERTEX
  8
0
 10
338.877548
 20
-496.411363557
  0
VERTEX
  8
0
 10
338.877548
 20
-545.411363557
  0
VERTEX
  8
0
 10
338.877548
 20
-545.411363557
  0
SEQEND
  8
0
  0
POLYLINE
  8
0
 62
0
 70
1
 66
1
 10
0.0
 20
0.0
 30
0.0
  0
VERTEX
  8
0
 10
338.877548
 20
-545.411363557
  0
VERTEX
  8
0
 10
338.877548
 20
-545.411363557
  0
VERTEX
  8
0
 10
263.877548
 20
-545.411363557
  0
VERTEX
  8
0
 10
263.877548
 20
-545.411363557
  0
SEQEND
  8
0
  0
POLYLINE
  8
0
 62
0
 70
1
 66
1
 10
0.0
 20
0.0
 30
0.0
  0
VERTEX
  8
0
 10
263.877548
 20
-545.411363557
  0
VERTEX
  8
0
 10
263.877548
 20
-545.411363557
  0
VERTEX
  8
0
 10
263.877548
 20
-496.411363557
  0
VERTEX
  8
0
 10
263.877548
 20
-496.411363557
  0
SEQEND
  8
0
  0
POLYLINE
  8
0
 62
0
 70
1
 66
1
 10
0.0
 20
0.0
 30
0.0
  0
VERTEX
  8
0
 10
263.877548
 20
-496.411363557
  0
VERTEX
  8
0
 10
338.877548
 20
-496.411363557
  0
VERTEX
  8
0
 10
338.877548
 20
-545.411363557
  0
VERTEX
  8
0
 10
263.877548
 20
-545.411363557
  0
SEQEND
  8
0
  0
POLYLINE
  8
0
 62
0
 70
1
 66
1
 10
0.0
 20
0.0
 30
0.0
  0
VERTEX
  8
0
 10
263.877548
 20
-496.411363557
  0
VERTEX
  8
0
 10
338.877548
 20
-496.411363557
  0
VERTEX
  8
0
 10
338.877548
 20
-545.411363557
  0
VERTEX
  8
0
 10
263.877548
 20
-545.411363557
  0
SEQEND
  8
0
  0
POLYLINE
  8
0
 62
0
 70
0
 66
1
 10
0.0
 20
0.0
 30
0.0
  0
VERTEX
  8
0
 10
230.5
 20
-548.0
  0
VERTEX
  8
0
 10
230.5
 20
-548.0
  0
VERTEX
  8
0
 10
230.5
 20
-548.0
  0
SEQEND
  8
0
  0
CIRCLE
  8
0
 62
0
 10
228.0
 20
-548.0
 30
0.0
 40
2.5
  0
CIRCLE
  8
0
 62
0
 10
228.0
 20
-548.0
 30
50.0
 40
2.5
  0
POLYLINE
  8
0
 62
0
 70
0
 66
1
 10
0.0
 20
0.0
 30
0.0
  0
VERTEX
  8
0
 10
174.5
 20
-548.0
  0
VERTEX
  8
0
 10
174.5
 20
-548.0
  0
VERTEX
  8
0
 10
174.5
 20
-548.0
  0
SEQEND
  8
0
  0
CIRCLE
  8
0
 62
0
 10
172.0
 20
-548.0
 30
0.0
 40
2.5
  0
CIRCLE
  8
0
 62
0
 10
172.0
 20
-548.0
 30
50.0
 40
2.5
  0
POLYLINE
  8
0
 62
0
 70
0
 66
1
 10
0.0
 20
0.0
 30
0.0
  0
VERTEX
  8
0
 10
230.5
 20
-492.0
  0
VERTEX
  8
0
 10
230.5
 20
-492.0
  0
VERTEX
  8
0
 10
230.5
 20
-492.0
  0
SEQEND
  8
0
  0
CIRCLE
  8
0
 62
0
 10
228.0
 20
-492.0
 30
0.0
 40
2.5
  0
CIRCLE
  8
0
 62
0
 10
228.0
 20
-492.0
 30
50.0
 40
2.5
  0
POLYLINE
  8
0
 62
0
 70
0
 66
1
 10
0.0
 20
0.0
 30
0.0
  0
VERTEX
  8
0
 10
174.5
 20
-492.0
  0
VERTEX
  8
0
 10
174.5
 20
-492.0
  0
VERTEX
  8
0
 10
174.5
 20
-492.0
  0
SEQEND
  8
0
  0
CIRCLE
  8
0
 62
0
 10
172.0
 20
-492.0
 30
0.0
 40
2.5
  0
CIRCLE
  8
0
 62
0
 10
172.0
 20
-492.0
 30
50.0
 40
2.5
  0
POLYLINE
  8
0
 62
0
 70
0
 66
1
 10
0.0
 20
0.0
 30
0.0
  0
VERTEX
  8
0
 10
349.377548
 20
-541.911363557
  0
VERTEX
  8
0
 10
349.377548
 20
-541.911363557
  0
VERTEX
  8
0
 10
349.377548
 20
-541.911363557
  0
SEQEND
  8
0
  0
CIRCLE
  8
0
 62
0
 10
347.377548
 20
-541.911363557
 30
0.0
 40
2.0
  0
CIRCLE
  8
0
 62
0
 10
347.377548
 20
-541.911363557
 30
50.0
 40
2.0
  0
POLYLINE
  8
0
 62
0
 70
0
 66
1
 10
0.0
 20
0.0
 30
0.0
  0
VERTEX
  8
0
 10
257.377548
 20
-541.911363557
  0
VERTEX
  8
0
 10
257.377548
 20
-541.911363557
  0
VERTEX
  8
0
 10
257.377548
 20
-541.911363557
  0
SEQEND
  8
0
  0
CIRCLE
  8
0
 62
0
 10
255.377548
 20
-541.911363557
 30
0.0
 40
2.0
  0
CIRCLE
  8
0
 62
0
 10
255.377548
 20
-541.911363557
 30
50.0
 40
2.0
  0
POLYLINE
  8
0
 62
0
 70
0
 66
1
 10
0.0
 20
0.0
 30
0.0
  0
VERTEX
  8
0
 10
349.377548
 20
-499.911363557
  0
VERTEX
  8
0
 10
349.377548
 20
-499.911363557
  0
VERTEX
  8
0
 10
349.377548
 20
-499.911363557
  0
SEQEND
  8
0
  0
CIRCLE
  8
0
 62
0
 10
347.377548
 20
-499.911363557
 30
0.0
 40
2.0
  0
CIRCLE
  8
0
 62
0
 10
347.377548
 20
-499.911363557
 30
50.0
 40
2.0
  0
POLYLINE
  8
0
 62
0
 70
0
 66
1
 10
0.0
 20
0.0
 30
0.0
  0
VERTEX
  8
0
 10
257.377548
 20
-499.911363557
  0
VERTEX
  8
0
 10
257.377548
 20
-499.911363557
  0
VERTEX
  8
0
 10
257.377548
 20
-499.911363557
  0
SEQEND
  8
0
  0
CIRCLE
  8
0
 62
0
 10
255.377548
 20
-499.911363557
 30
0.0
 40
2.0
  0
CIRCLE
  8
0
 62
0
 10
255.377548
 20
-499.911363557
 30
50.0
 40
2.0
  0
ENDBLK
  0
ENDSEC
  0
SECTION
  2
ENTITIES
  0
INSERT
  2
PAD
  8
0
 10
0.0
 20
0.0
 30
0.0
  0
INSERT
  2
PAD011
  8
0
 10
0.0
 20
0.0
 30
0.0
  0
INSERT
  2
PAD001
  8
0
 10
0.0
 20
0.0
 30
0.0
  0
INSERT
  2
PAD002
  8
0
 10
0.0
 20
0.0
 30
0.0
  0
INSERT
  2
PAD003
  8
0
 10
0.0
 20
0.0
 30
0.0
  0
INSERT
  2
PAD004
  8
0
 10
0.0
 20
0.0
 30
0.0
  0
INSERT
  2
PAD005
  8
0
 10
0.0
 20
0.0
 30
0.0
  0
INSERT
  2
PAD006
  8
0
 10
0.0
 20
0.0
 30
0.0
  0
INSERT
  2
PAD007
  8
0
 10
0.0
 20
0.0
 30
0.0
  0
POLYLINE
  8
0
 62
0
 70
1
 66
1
 10
0.0
 20
0.0
 30
0.0
  0
VERTEX
  8
0
 10
330.0
 20
130.0
  0
VERTEX
  8
0
 10
330.0
 20
130.0
  0
VERTEX
  8
0
 10
547.0
 20
130.0
  0
VERTEX
  8
0
 10
547.0
 20
130.0
  0
SEQEND
  8
0
  0
POLYLINE
  8
0
 62
0
 70
1
 66
1
 10
0.0
 20
0.0
 30
0.0
  0
VERTEX
  8
0
 10
547.0
 20
130.0
  0
VERTEX
  8
0
 10
547.0
 20
130.0
  0
VERTEX
  8
0
 10
547.0
 20
52.0
  0
VERTEX
  8
0
 10
547.0
 20
52.0
  0
SEQEND
  8
0
  0
POLYLINE
  8
0
 62
0
 70
1
 66
1
 10
0.0
 20
0.0
 30
0.0
  0
VERTEX
  8
0
 10
547.0
 20
52.0
  0
VERTEX
  8
0
 10
547.0
 20
52.0
  0
VERTEX
  8
0
 10
330.0
 20
52.0
  0
VERTEX
  8
0
 10
330.0
 20
52.0
  0
SEQEND
  8
0
  0
POLYLINE
  8
0
 62
0
 70
1
 66
1
 10
0.0
 20
0.0
 30
0.0
  0
VERTEX
  8
0
 10
330.0
 20
52.0
  0
VERTEX
  8
0
 10
330.0
 20
52.0
  0
VERTEX
  8
0
 10
330.0
 20
130.0
  0
VERTEX
  8
0
 10
330.0
 20
130.0
  0
SEQEND
  8
0
  0
POLYLINE
  8
0
 62
0
 70
1
 66
1
 10
0.0
 20
0.0
 30
0.0
  0
VERTEX
  8
0
 10
330.0
 20
130.0
  0
VERTEX
  8
0
 10
547.0
 20
130.0
  0
VERTEX
  8
0
 10
547.0
 20
52.0
  0
VERTEX
  8
0
 10
330.0
 20
52.0
  0
SEQEND
  8
0
  0
POLYLINE
  8
0
 62
0
 70
1
 66
1
 10
0.0
 20
0.0
 30
0.0
  0
VERTEX
  8
0
 10
330.0
 20
130.0
  0
VERTEX
  8
0
 10
547.0
 20
130.0
  0
VERTEX
  8
0
 10
547.0
 20
52.0
  0
VERTEX
  8
0
 10
330.0
 20
52.0
  0
SEQEND
  8
0
  0
INSERT
  2
PAD009
  8
0
 10
0.0
 20
0.0
 30
0.0
  0
INSERT
  2
PAD010
  8
0
 10
0.0
 20
0.0
 30
0.0
  0
ENDSEC
  0
EOF
